<?xml version="1.0" encoding="UTF-8"?>
<svg version="1.1" xmlns="http://www.w3.org/2000/svg" width="225" height="225">
<path d="M0 0 C74.25 0 148.5 0 225 0 C225 74.25 225 148.5 225 225 C150.75 225 76.5 225 0 225 C0 150.75 0 76.5 0 0 Z " fill="#C7E3C9" transform="translate(0,0)"/>
<path d="M0 0 C74.25 0 148.5 0 225 0 C225 74.25 225 148.5 225 225 C150.75 225 76.5 225 0 225 C0 150.75 0 76.5 0 0 Z M91 11 C91 11.66 91 12.32 91 13 C90.113125 12.95875 89.22625 12.9175 88.3125 12.875 C84.91837498 13.00308019 83.08429029 13.6781613 80 15 C77.34653107 15.73404374 74.67954217 16.36417643 72 17 C72 17.66 72 18.32 72 19 C69.36 19.66 66.72 20.32 64 21 C64 21.66 64 22.32 64 23 C61.36 23.66 58.72 24.32 56 25 C56 25.66 56 26.32 56 27 C55.46375 27.2475 54.9275 27.495 54.375 27.75 C51.4176018 29.30652537 48.70275949 31.03435673 46 33 C46 33.66 46 34.32 46 35 C44 36 42 37 40 38 C40 38.66 40 39.32 40 40 C39.34 40 38.68 40 38 40 C35.60179695 42.63684747 35.60179695 42.63684747 35 46 C34.34 46 33.68 46 33 46 C31.178958 48.17458278 31.178958 48.17458278 29.375 50.875 C28.74335938 51.77992187 28.11171875 52.68484375 27.4609375 53.6171875 C25.82576895 55.81833706 25.82576895 55.81833706 26 58 C25.34 58 24.68 58 24 58 C23.608125 58.94875 23.21625 59.8975 22.8125 60.875 C21.53823707 63.8803371 20.08942717 66.74080424 18.5625 69.625 C7.39604469 91.85700892 6.58828462 120.56920034 14.2890625 144.0078125 C21.61021965 165.17987539 33.77709929 182.5616177 51.75 195.9375 C52.40057373 196.42299316 53.05114746 196.90848633 53.72143555 197.40869141 C54.34445557 197.86034668 54.96747559 198.31200195 55.609375 198.77734375 C56.16592773 199.18202881 56.72248047 199.58671387 57.29589844 200.00366211 C59.24363505 201.14244623 60.75328049 201.74280827 63 202 C64.45828028 200.84000432 65.90938305 199.66690581 67.28515625 198.41015625 C72.77860974 193.89276056 79.21329294 191.96244032 86.1875 191.4375 C87.27417969 191.35371094 88.36085938 191.26992187 89.48046875 191.18359375 C90.31191406 191.12300781 91.14335938 191.06242188 92 191 C92.020625 191.598125 92.04125 192.19625 92.0625 192.8125 C92.87862741 195.29803809 92.87862741 195.29803809 95.8125 196.7265625 C101.05221962 198.69680401 106.47655856 198.43577136 112 198.375 C113.58167969 198.39240234 113.58167969 198.39240234 115.1953125 198.41015625 C121.15488084 198.38775186 125.85530147 198.15827326 131 195 C132.04289755 192.93109581 132.04289755 192.93109581 132 191 C141.67604291 191.80433607 149.53654345 192.88256115 158 198 C159.32779373 198.67763266 160.65949948 199.34786461 162 200 C162 200.66 162 201.32 162 202 C167.27485346 200.60300685 170.77383954 198.23937874 174.9375 194.875 C175.55359131 194.38435059 176.16968262 193.89370117 176.80444336 193.38818359 C180.82142357 190.12588297 184.3678819 186.72108623 187.62890625 182.6875 C189 181 189 181 191.5 178.625 C202.42696007 167.15169193 209.26620375 151.24941538 213 136 C213.17587646 135.29431885 213.35175293 134.5886377 213.53295898 133.86157227 C215.13012045 126.83306758 215.34790834 120.00190982 215.3125 112.8125 C215.30404053 111.01848755 215.30404053 111.01848755 215.29541016 109.18823242 C215.01330422 88.62662036 208.75395925 65.96234144 195 50 C194.34 50 193.68 50 193 50 C192.773125 49.278125 192.54625 48.55625 192.3125 47.8125 C190.73664872 44.43567583 188.79123384 42.44232961 186 40 C185.34 40 184.68 40 184 40 C183.79375 39.443125 183.5875 38.88625 183.375 38.3125 C181.49115758 35.14421957 178.87376147 33.21545487 176 31 C175.35289062 30.46632813 174.70578125 29.93265625 174.0390625 29.3828125 C170.08546773 26.21690711 167.24061088 24.26203054 162 24 C162 23.34 162 22.68 162 22 C161.34 22 160.68 22 160 22 C160 21.34 160 20.68 160 20 C154.73248843 17.53943904 149.62954586 15.51564696 144 14 C143.27941406 13.67515625 142.55882812 13.3503125 141.81640625 13.015625 C138.15944303 11.69688653 134.53043316 11.26604518 130.6875 10.875 C129.47006104 10.74871216 129.47006104 10.74871216 128.22802734 10.61987305 C121.19468717 9.96780591 114.18585627 9.81786988 107.125 9.8125 C106.09721436 9.81169434 105.06942871 9.81088867 104.01049805 9.81005859 C99.515787 9.84364856 95.40081959 10.01323605 91 11 Z " fill="#FDFDFD" transform="translate(0,0)"/>
<path d="M0 0 C1.13042725 0.10501831 1.13042725 0.10501831 2.28369141 0.2121582 C7.12594895 0.76169252 10.97884293 2.12722008 15.4375 4.1875 C17.15654055 4.74083923 18.88517865 5.26594795 20.625 5.75 C23.77130028 6.62700024 26.55524023 7.64366891 29.4375 9.1875 C29.4375 9.8475 29.4375 10.5075 29.4375 11.1875 C30.0975 11.1875 30.7575 11.1875 31.4375 11.1875 C31.4375 11.8475 31.4375 12.5075 31.4375 13.1875 C32.675 13.249375 32.675 13.249375 33.9375 13.3125 C38.74145944 14.51348986 41.68536265 17.04909515 45.4375 20.1875 C46.19289062 20.80882813 46.94828125 21.43015625 47.7265625 22.0703125 C51.86769057 25.56759027 51.86769057 25.56759027 53.4375 27.1875 C53.4375 27.8475 53.4375 28.5075 53.4375 29.1875 C53.994375 29.39375 54.55125 29.6 55.125 29.8125 C58.40762371 31.76433032 60.14423246 34.12980994 62.4375 37.1875 C62.4375 37.8475 62.4375 38.5075 62.4375 39.1875 C63.4275 39.5175 64.4175 39.8475 65.4375 40.1875 C82.31228039 63.27558865 87.95951979 92.30095986 83.7890625 120.3984375 C78.89312561 146.68409184 63.0310072 170.92992976 41.34765625 186.390625 C33.92809959 191.1875 33.92809959 191.1875 31.4375 191.1875 C31.4375 190.5275 31.4375 189.8675 31.4375 189.1875 C30.86515625 188.9090625 30.2928125 188.630625 29.703125 188.34375 C27.4375 187.1875 27.4375 187.1875 25.421875 185.96875 C17.7500265 181.56950821 10.0855654 180.90638385 1.4375 180.1875 C1.416875 180.785625 1.39625 181.38375 1.375 182 C0.4375 184.1875 0.4375 184.1875 -2.375 185.9140625 C-7.61471962 187.88430401 -13.03905856 187.62327136 -18.5625 187.5625 C-19.61695312 187.57410156 -20.67140625 187.58570313 -21.7578125 187.59765625 C-27.71738084 187.57525186 -32.41780147 187.34577326 -37.5625 184.1875 C-38.5 182 -38.5 182 -38.5625 180.1875 C-49.46136757 180.55632801 -56.64467521 182.96576177 -65.5625 189.1875 C-66.88761665 189.8703529 -68.21957334 190.54037543 -69.5625 191.1875 C-94.7204827 174.75365646 -112.52682965 152.59823563 -119.09545898 122.76708984 C-120.45536254 115.9911542 -120.91336104 109.46523078 -120.875 102.5625 C-120.87081055 101.5199707 -120.86662109 100.47744141 -120.86230469 99.40332031 C-120.62816388 83.19778746 -117.87603441 67.08147631 -108.83203125 53.34375 C-107.60407416 51.25811211 -107.00842884 49.55146014 -106.5625 47.1875 C-105.9025 47.1875 -105.2425 47.1875 -104.5625 47.1875 C-104.335625 46.506875 -104.10875 45.82625 -103.875 45.125 C-102.25023854 41.4886291 -100.23446743 38.15920737 -97.5625 35.1875 C-96.9025 35.1875 -96.2425 35.1875 -95.5625 35.1875 C-95.253125 34.56875 -94.94375 33.95 -94.625 33.3125 C-93.9375 31.9375 -93.25 30.5625 -92.5625 29.1875 C-91.9025 29.1875 -91.2425 29.1875 -90.5625 29.1875 C-90.5625 28.5275 -90.5625 27.8675 -90.5625 27.1875 C-87.10096154 24.1875 -87.10096154 24.1875 -84.5625 24.1875 C-84.5625 23.5275 -84.5625 22.8675 -84.5625 22.1875 C-82.8828125 20.6796875 -82.8828125 20.6796875 -80.6875 19.0625 C-79.96820313 18.52367188 -79.24890625 17.98484375 -78.5078125 17.4296875 C-76.5625 16.1875 -76.5625 16.1875 -74.5625 16.1875 C-74.5625 15.5275 -74.5625 14.8675 -74.5625 14.1875 C-71.9225 13.5275 -69.2825 12.8675 -66.5625 12.1875 C-66.5625 11.5275 -66.5625 10.8675 -66.5625 10.1875 C-63.9225 9.5275 -61.2825 8.8675 -58.5625 8.1875 C-58.5625 7.5275 -58.5625 6.8675 -58.5625 6.1875 C-57.70785156 5.98253906 -56.85320312 5.77757812 -55.97265625 5.56640625 C-54.86792969 5.29699219 -53.76320313 5.02757812 -52.625 4.75 C-51.52285156 4.48316406 -50.42070313 4.21632813 -49.28515625 3.94140625 C-46.66828746 3.45754275 -46.66828746 3.45754275 -45.5625 2.1875 C-43.56291636 2.14669217 -41.56204746 2.14495644 -39.5625 2.1875 C-39.5625 1.5275 -39.5625 0.8675 -39.5625 0.1875 C-27.02122476 -2.62453946 -12.70873167 -1.26168798 0 0 Z M-42.5625 27.1875 C-42.5625 27.8475 -42.5625 28.5075 -42.5625 29.1875 C-43.7175 29.27 -44.8725 29.3525 -46.0625 29.4375 C-50.70292459 30.00824741 -54.66171459 31.60967423 -58.5625 34.1875 C-58.8925 34.8475 -59.2225 35.5075 -59.5625 36.1875 C-61.21470898 37.09790087 -62.86696968 38.00820805 -64.51953125 38.91796875 C-69.59070958 42.06927459 -74.25208301 46.20143984 -77.5625 51.1875 C-77.5625 51.8475 -77.5625 52.5075 -77.5625 53.1875 C-78.2225 53.1875 -78.8825 53.1875 -79.5625 53.1875 C-85.79164161 66.03755314 -87.89383842 75.05039394 -87.5625 89.1875 C-88.43068359 89.38472656 -88.43068359 89.38472656 -89.31640625 89.5859375 C-95.69825446 91.29516293 -100.01031692 93.96061795 -103.65234375 99.50390625 C-106.32001455 104.43852476 -106.22743756 109.74067106 -105.5625 115.1875 C-104.21778919 118.73264667 -102.52880822 121.95011396 -100.5625 125.1875 C-99.9025 125.1875 -99.2425 125.1875 -98.5625 125.1875 C-98.5625 125.8475 -98.5625 126.5075 -98.5625 127.1875 C-97.29558493 127.86158308 -96.02379251 128.52650497 -94.75 129.1875 C-93.68845703 129.744375 -93.68845703 129.744375 -92.60546875 130.3125 C-90.47329271 131.38435358 -90.47329271 131.38435358 -87.5625 131.1875 C-87.60890625 132.1775 -87.6553125 133.1675 -87.703125 134.1875 C-87.94879238 141.6501192 -88.07070889 147.89479176 -83.5625 154.1875 C-82.985 155.095 -82.4075 156.0025 -81.8125 156.9375 C-76.6523093 162.0976907 -71.08944861 163.63951115 -63.91799927 163.71850586 C-62.96658051 163.70883789 -62.01516174 163.69916992 -61.03491211 163.68920898 C-60.01110947 163.69461197 -58.98730682 163.70001495 -57.93247986 163.70558167 C-54.56796849 163.71802951 -51.20431934 163.70160462 -47.83984375 163.68359375 C-45.4915004 163.68374882 -43.14315679 163.68523907 -40.79481506 163.68800354 C-35.88156777 163.68938573 -30.96861303 163.67685814 -26.05541992 163.65405273 C-19.76512142 163.62565341 -13.47530822 163.6284123 -7.18497372 163.64114285 C-2.3387489 163.64810493 2.5073642 163.64030486 7.35357475 163.62788582 C9.6727601 163.6233776 11.99195746 163.623029 14.31114388 163.62695122 C17.55411407 163.62986894 20.79642043 163.6133293 24.03930664 163.59155273 C25.46947113 163.59830521 25.46947113 163.59830521 26.92852783 163.60519409 C33.85904159 163.52806247 38.7244217 162.52200924 44.125 157.875 C50.00460937 151.04194046 51.58229149 146.82498135 51.5 137.9375 C51.49097656 136.67421875 51.48195312 135.4109375 51.47265625 134.109375 C51.46105469 133.14515625 51.44945312 132.1809375 51.4375 131.1875 C52.9225 130.9090625 52.9225 130.9090625 54.4375 130.625 C60.2790613 128.96276711 64.61467076 124.65807721 68.15234375 119.86328125 C69.71581271 116.60803432 69.80464696 114.28579193 69.75 110.6875 C69.74613281 109.5840625 69.74226562 108.480625 69.73828125 107.34375 C69.18970525 101.58726418 66.81198144 97.00732231 62.4375 93.1875 C57.2209724 90.23255312 57.2209724 90.23255312 51.4375 89.1875 C51.48390625 88.25550781 51.5303125 87.32351562 51.578125 86.36328125 C51.90457766 74.83250699 49.80407899 65.53623256 44.4375 55.1875 C43.7775 55.1875 43.1175 55.1875 42.4375 55.1875 C42.19 54.465625 41.9425 53.74375 41.6875 53 C39.15288667 47.29712 34.59416464 42.66914596 29.4375 39.1875 C28.4475 39.1875 27.4575 39.1875 26.4375 39.1875 C26.4375 38.5275 26.4375 37.8675 26.4375 37.1875 C11.83361636 29.06186352 -0.00130601 24.83445454 -16.875 24.9375 C-18.12990234 24.92976563 -19.38480469 24.92203125 -20.67773438 24.9140625 C-28.19047163 24.92972219 -35.23131009 25.52446299 -42.5625 27.1875 Z " fill="#AEED92" transform="translate(130.5625,10.8125)"/>
<path d="M0 0 C1.24003029 -0.01007584 1.24003029 -0.01007584 2.50511169 -0.02035522 C5.23157808 -0.03931557 7.957798 -0.04325855 10.68432617 -0.04541016 C12.58615723 -0.05183989 14.48798729 -0.05856838 16.38981628 -0.06558228 C20.37513521 -0.07755045 24.3603675 -0.08126361 28.34570312 -0.08007812 C33.43995969 -0.07987507 38.53365758 -0.10716589 43.62778187 -0.14162254 C47.55615261 -0.16391614 51.48438949 -0.1679149 55.412817 -0.16685867 C57.29020804 -0.16921136 59.16760295 -0.17801607 61.04493141 -0.19352341 C63.67748161 -0.21323159 66.30883468 -0.20732661 68.94140625 -0.1953125 C69.70895233 -0.20655151 70.47649841 -0.21779053 71.26730347 -0.22937012 C77.71236878 -0.15503916 82.92586286 1.67969782 87.64053345 6.17385864 C88.98605282 8.95441694 89.04588479 11.06948061 89.05297852 14.15722656 C89.062435 15.33880341 89.07189148 16.52038025 89.08163452 17.73776245 C89.07556183 19.01072174 89.06948914 20.28368103 89.06323242 21.59521484 C89.0661026 22.90708771 89.06897278 24.21896057 89.07192993 25.57058716 C89.07634871 28.34631966 89.0699391 31.1217622 89.0559082 33.89746094 C89.0388495 37.443844 89.04863847 40.98954422 89.0666256 44.53590202 C89.08012012 47.93072657 89.07064901 51.32537094 89.06323242 54.72021484 C89.06930511 55.98912567 89.07537781 57.2580365 89.08163452 58.56539917 C89.0674498 60.34722092 89.0674498 60.34722092 89.05297852 62.16503906 C89.05059174 63.20554413 89.04820496 64.24604919 89.04574585 65.31808472 C88.57980355 68.95368879 87.68635875 71.22699729 85.66479492 74.29052734 C80.8562304 77.66979272 76.45664514 77.72099845 70.80126953 77.67871094 C69.93060349 77.6839679 69.05993744 77.68922485 68.16288757 77.69464111 C65.29745312 77.70779804 62.43257835 77.69911907 59.56713867 77.68896484 C57.56986891 77.69098663 55.57259988 77.69389895 53.57533264 77.69766235 C49.39503939 77.70207972 45.21493878 77.69567283 41.03466797 77.68164062 C35.67902538 77.66453808 30.32383348 77.67440051 24.96820736 77.69235802 C20.84608061 77.70320222 16.7240606 77.69974676 12.60193062 77.69197464 C10.6271821 77.68997497 8.65242385 77.6924237 6.67768669 77.6994133 C3.91783873 77.7070394 1.15871952 77.69540778 -1.60107422 77.67871094 C-2.41523804 77.68478363 -3.22940186 77.69085632 -4.0682373 77.69711304 C-8.66632977 77.64562573 -11.76099658 77.27497221 -15.33520508 74.29052734 C-18.19368425 70.59712045 -18.7182614 67.83571839 -18.75512695 63.21850586 C-18.77899475 61.41622276 -18.77899475 61.41622276 -18.80334473 59.57752991 C-18.80354614 58.28785812 -18.80374756 56.99818634 -18.80395508 55.66943359 C-18.81106241 54.32331528 -18.81876225 52.97719997 -18.82702637 51.63108826 C-18.8404486 48.81427583 -18.84205021 45.99774359 -18.83618164 43.1809082 C-18.83028608 39.58156609 -18.86087851 35.98357316 -18.90129852 32.38449192 C-18.92722191 29.60565524 -18.9300489 26.82714153 -18.92640686 24.04820061 C-18.92891042 22.07954878 -18.9535734 20.11096517 -18.9786377 18.14247131 C-18.90171351 8.18391064 -18.90171351 8.18391064 -16.1105957 4.5559082 C-10.98494981 0.37215836 -6.45814471 -0.00756636 0 0 Z " fill="#222222" transform="translate(77.335205078125,85.70947265625)"/>
<path d="M0 0 C1.91727905 0.00241699 1.91727905 0.00241699 3.87329102 0.00488281 C15.97276772 0.16206891 25.61948229 1.37523608 35.75 8.375 C37.19185712 9.15620687 38.64819523 9.91205977 40.125 10.625 C41.15753906 11.12773438 41.15753906 11.12773438 42.2109375 11.640625 C42.71882812 11.88296875 43.22671875 12.1253125 43.75 12.375 C43.75 13.035 43.75 13.695 43.75 14.375 C44.33910156 14.48585938 44.92820313 14.59671875 45.53515625 14.7109375 C51.9553356 16.635859 56.31962603 22.96956222 59.75 28.375 C59.75 29.035 59.75 29.695 59.75 30.375 C60.41 30.375 61.07 30.375 61.75 30.375 C67.45272745 42.21577761 69.05400178 51.40425735 68.75 64.375 C69.8225 64.66375 70.895 64.9525 72 65.25 C76.80686436 66.69205931 79.68380311 67.91916922 82.9375 71.75 C83.70126953 72.62785156 83.70126953 72.62785156 84.48046875 73.5234375 C88.09329657 78.79260792 87.50523475 86.30407454 86.75 92.375 C84.24245771 97.99905913 79.23555216 102.61445215 73.75 105.375 C72.09417524 105.75857955 70.42769542 106.10255374 68.75 106.375 C68.78480469 107.2928125 68.81960937 108.210625 68.85546875 109.15625 C69.04648254 117.81554198 68.77982786 123.77801981 63.9375 131.125 C59.76831583 135.41330372 55.62129761 138.13051069 49.6247139 138.50922108 C48.4733098 138.5156313 48.4733098 138.5156313 47.29864502 138.52217102 C45.96988846 138.53290398 45.96988846 138.53290398 44.61428833 138.54385376 C43.65005951 138.54654266 42.68583069 138.54923157 41.69238281 138.55200195 C40.67077057 138.55857315 39.64915833 138.56514435 38.59658813 138.57191467 C35.21543299 138.59162654 31.83432222 138.60330536 28.453125 138.61328125 C27.29732689 138.61735678 26.14152878 138.6214323 24.95070648 138.62563133 C18.83367594 138.64648262 12.71666776 138.66078869 6.59960938 138.67016602 C0.28686518 138.68123103 -6.02552659 138.71563515 -12.33814621 138.75533772 C-17.19725188 138.78150043 -22.05627351 138.78985755 -26.91544342 138.79344749 C-29.24220409 138.79831395 -31.568961 138.80992955 -33.89565277 138.82848549 C-37.15565325 138.85286968 -40.41474066 138.85191285 -43.67480469 138.8449707 C-45.10900253 138.86418579 -45.10900253 138.86418579 -46.57217407 138.88378906 C-53.57065671 138.82961978 -59.15274763 137.38256359 -64.2734375 132.41015625 C-64.94246094 131.43369141 -64.94246094 131.43369141 -65.625 130.4375 C-66.08648437 129.78910156 -66.54796875 129.14070312 -67.0234375 128.47265625 C-69.95479821 123.4594693 -70.51819823 119.31796739 -70.375 113.5625 C-70.36597656 112.86962891 -70.35695313 112.17675781 -70.34765625 111.46289062 C-70.32426157 109.76677605 -70.28839641 108.07084129 -70.25 106.375 C-71.00667969 106.24222656 -71.76335937 106.10945313 -72.54296875 105.97265625 C-75.76290239 105.26176181 -78.35261147 103.92476596 -81.25 102.375 C-81.25 101.715 -81.25 101.055 -81.25 100.375 C-82.24 100.045 -83.23 99.715 -84.25 99.375 C-88.461766 93.31794521 -89.17502843 86.54118407 -88.25 79.375 C-87 76 -87 76 -85.25 73.375 C-84.693125 72.50875 -84.13625 71.6425 -83.5625 70.75 C-80.5612664 67.66765198 -77.27976742 65.85616708 -73.25 64.375 C-72.26 64.375 -71.27 64.375 -70.25 64.375 C-70.29640625 63.44300781 -70.3428125 62.51101562 -70.390625 61.55078125 C-70.73784865 49.28634574 -68.19645689 39.20604647 -62.25 28.375 C-61.59 28.375 -60.93 28.375 -60.25 28.375 C-60.0025 27.818125 -59.755 27.26125 -59.5 26.6875 C-55.8965098 20.02104314 -49.52375718 13.79958573 -42.25 11.375 C-41.78335938 10.90449219 -41.31671875 10.43398438 -40.8359375 9.94921875 C-37.30754889 6.44690198 -32.07337097 4.52384661 -27.1875 4.125 C-26.548125 4.2075 -25.90875 4.29 -25.25 4.375 C-25.25 3.715 -25.25 3.055 -25.25 2.375 C-16.80298775 0.49379712 -8.64042171 -0.01130871 0 0 Z M-7.25 6.375 C-7.25 8.685 -7.25 10.995 -7.25 13.375 C-8.2296875 13.32472656 -9.209375 13.27445313 -10.21875 13.22265625 C-14.67716229 13.22377758 -18.54044348 14.44571197 -22.75 15.8125 C-27.93602514 17.46850266 -32.82729125 18.66977399 -38.25 19.375 C-39.24 19.87 -39.24 19.87 -40.25 20.375 C-40.25 21.035 -40.25 21.695 -40.25 22.375 C-41.25 25.375 -41.25 25.375 -43.0625 26.375 C-43.784375 26.705 -44.50625 27.035 -45.25 27.375 C-47.47743787 28.79477909 -47.47743787 28.79477909 -49.25 30.375 C-49.25 31.035 -49.25 31.695 -49.25 32.375 C-49.91 32.375 -50.57 32.375 -51.25 32.375 C-53.64820305 35.01184747 -53.64820305 35.01184747 -54.25 38.375 C-54.91 38.375 -55.57 38.375 -56.25 38.375 C-56.58 40.355 -56.91 42.335 -57.25 44.375 C-57.91 44.375 -58.57 44.375 -59.25 44.375 C-59.724375 45.53 -60.19875 46.685 -60.6875 47.875 C-60.95433594 48.5246875 -61.22117187 49.174375 -61.49609375 49.84375 C-63.7972352 57.56986221 -63.42534735 65.76531821 -63.453125 73.74609375 C-63.45882507 75.02299576 -63.46452515 76.29989777 -63.47039795 77.61549377 C-63.47981462 80.30758213 -63.48672926 82.99955992 -63.49023438 85.69165039 C-63.49572226 89.11873411 -63.51978303 92.54542124 -63.54820633 95.97238064 C-63.571444 99.27192089 -63.57328821 102.57148317 -63.578125 105.87109375 C-63.5904718 107.09009872 -63.6028186 108.3091037 -63.61553955 109.56504822 C-63.59436487 117.71236258 -63.13280626 124.80942384 -57.875 131.3125 C-52.36399231 135.64257747 -47.45654441 135.67235076 -40.70556641 135.66552734 C-39.75047684 135.67224457 -38.79538727 135.67896179 -37.81135559 135.68588257 C-34.65803812 135.70486064 -31.5049335 135.70878663 -28.3515625 135.7109375 C-26.15587273 135.71736532 -23.96018382 135.72409367 -21.76449585 135.73110962 C-17.16296401 135.74308175 -12.56150725 135.74679048 -7.95996094 135.74560547 C-2.0697252 135.74540223 3.82002831 135.77270971 9.71014977 135.80714989 C14.24496666 135.82940941 18.7796673 135.8334433 23.31453323 135.83238602 C25.48581225 135.83474319 27.65709442 135.84357322 29.82831955 135.85905075 C32.86814715 135.87869192 35.90693221 135.87287972 38.94677734 135.86083984 C39.8394783 135.87207886 40.73217926 135.88331787 41.65193176 135.89489746 C47.51925928 135.83597839 50.91293549 134.73452283 55.75 131.375 C57.5035514 129.69521088 57.5035514 129.69521088 58.625 127.875 C59.01429688 127.3078125 59.40359375 126.740625 59.8046875 126.15625 C61.79875663 122.39883049 61.87962798 118.78732785 61.89526367 114.58764648 C61.90164352 113.4222081 61.90802338 112.25676971 61.91459656 111.05601501 C61.91570938 109.798741 61.9168222 108.54146698 61.91796875 107.24609375 C61.92129715 105.94607925 61.92462555 104.64606476 61.92805481 103.30665588 C61.93403931 100.5520037 61.93589565 97.79738284 61.93530273 95.04272461 C61.9352017 91.54182584 61.94879553 88.04113258 61.96607494 84.54028225 C61.97999372 81.17138378 61.97928738 77.8025205 61.98046875 74.43359375 C61.99124702 72.56893715 61.99124702 72.56893715 62.00224304 70.66661072 C61.97845688 61.48573544 61.36795755 52.89568247 57.75 44.375 C57.09 44.375 56.43 44.375 55.75 44.375 C55.65203125 43.63378906 55.5540625 42.89257812 55.453125 42.12890625 C54.66184463 39.0297248 53.64141281 37.65408836 51.5 35.3125 C50.86964844 34.62027344 50.23929687 33.92804688 49.58984375 33.21484375 C47.70308868 31.23909287 47.70308868 31.23909287 45.0625 29.375 C41.83460614 26.58330802 40.43014259 23.24214384 38.75 19.375 C37.698125 19.7153125 37.698125 19.7153125 36.625 20.0625 C32.82003956 20.47608266 31.06708539 19.20278174 27.75 17.375 C20.78243097 14.68298469 13.23875722 12.98085488 5.75 13.375 C5.75 11.065 5.75 8.755 5.75 6.375 C1.46 6.375 -2.83 6.375 -7.25 6.375 Z " fill="#F8FCF9" transform="translate(113.25,35.625)"/>
<path d="M0 0 C0.763125 0.061875 1.52625 0.12375 2.3125 0.1875 C2.3125 0.8475 2.3125 1.5075 2.3125 2.1875 C3.26962891 2.17009766 3.26962891 2.17009766 4.24609375 2.15234375 C5.07238281 2.14332031 5.89867187 2.13429687 6.75 2.125 C7.57371094 2.11339844 8.39742187 2.10179687 9.24609375 2.08984375 C11.3125 2.1875 11.3125 2.1875 12.3125 3.1875 C13.7537464 17.84017174 3.46526461 33.14778074 -5.16796875 44.44140625 C-13.24872079 53.72700049 -22.78789085 62.38206444 -33.6875 68.1875 C-34.3475 68.1875 -35.0075 68.1875 -35.6875 68.1875 C-35.6875 67.5275 -35.6875 66.8675 -35.6875 66.1875 C-36.25984375 65.9090625 -36.8321875 65.630625 -37.421875 65.34375 C-39.6875 64.1875 -39.6875 64.1875 -41.703125 62.96875 C-49.3749735 58.56950821 -57.0394346 57.90638385 -65.6875 57.1875 C-65.708125 57.785625 -65.72875 58.38375 -65.75 59 C-66.6875 61.1875 -66.6875 61.1875 -69.5 62.9140625 C-74.73971962 64.88430401 -80.16405856 64.62327136 -85.6875 64.5625 C-86.74195312 64.57410156 -87.79640625 64.58570313 -88.8828125 64.59765625 C-94.84238084 64.57525186 -99.54280147 64.34577326 -104.6875 61.1875 C-105.625 59 -105.625 59 -105.6875 57.1875 C-116.58636757 57.55632801 -123.76967521 59.96576177 -132.6875 66.1875 C-134.01261665 66.8703529 -135.34457334 67.54037543 -136.6875 68.1875 C-157.88116438 54.03655253 -157.88116438 54.03655253 -159.625 47.875 C-159.645625 46.988125 -159.66625 46.10125 -159.6875 45.1875 C-160.3475 44.1975 -161.0075 43.2075 -161.6875 42.1875 C-157.0675 42.1875 -152.4475 42.1875 -147.6875 42.1875 C-148.3475 40.5375 -149.0075 38.8875 -149.6875 37.1875 C-148.6975 37.8475 -147.7075 38.5075 -146.6875 39.1875 C-144.49940769 39.49074819 -144.49940769 39.49074819 -142.04595947 39.44819641 C-141.09273804 39.45528122 -140.1395166 39.46236603 -139.15740967 39.46966553 C-138.11320862 39.46718811 -137.06900757 39.46471069 -135.99316406 39.4621582 C-134.89206299 39.46726913 -133.79096191 39.47238007 -132.65649414 39.47764587 C-129.00531625 39.49158021 -125.35432637 39.4905818 -121.703125 39.48828125 C-119.16827321 39.49216686 -116.63342207 39.49650125 -114.09857178 39.50126648 C-108.7789065 39.50873755 -103.45931046 39.50856954 -98.13964844 39.50317383 C-92.00085713 39.49714263 -85.86229552 39.5094221 -79.72354341 39.5307439 C-73.81020832 39.55052396 -67.89694402 39.55352855 -61.98357391 39.55000877 C-59.47179374 39.55052202 -56.9600099 39.55576031 -54.44824982 39.56582069 C-50.93179222 39.57817298 -47.41586336 39.57139938 -43.89941406 39.55981445 C-42.34525787 39.57128006 -42.34525787 39.57128006 -40.75970459 39.58297729 C-33.52210325 39.53034198 -28.57171495 38.67841291 -22.9375 33.8125 C-18.84533577 29.0383084 -16.65481822 25.23416835 -16.72265625 18.91015625 C-16.75096535 15.12078158 -16.62448228 11.8657002 -15.6875 8.1875 C-13.2570271 6.04833601 -11.18190536 5.12654557 -8.1328125 4.08203125 C-4.65683404 2.81046725 -3.73280599 0.26042833 0 0 Z " fill="#40B298" transform="translate(197.6875,133.8125)"/>
<path d="M0 0 C2.31 0 4.62 0 7 0 C6.79503906 0.76441406 6.59007812 1.52882813 6.37890625 2.31640625 C4.20751738 10.95001463 3.35548219 19.13746131 3 28 C2.26394531 28.27972656 1.52789062 28.55945313 0.76953125 28.84765625 C-5.87252223 31.57642591 -9.490542 33.68297559 -13 40 C-15.46481122 47.39443366 -14.38834825 54.41388253 -11.0703125 61.3203125 C-10.09663615 63.16584014 -10.09663615 63.16584014 -8 64 C-8 64.66 -8 65.32 -8 66 C-7.113125 66.28875 -6.22625 66.5775 -5.3125 66.875 C-2.49528665 67.83178944 0.24427605 68.88268773 3 70 C3.02578125 70.99 3.0515625 71.98 3.078125 73 C3.4254137 82.14295389 4.23250622 88.86494585 10.5625 95.8125 C11.366875 96.534375 12.17125 97.25625 13 98 C14 99 15 100 16 101 C11.125 102 11.125 102 10 102 C10 102.66 10 103.32 10 104 C3.565 104.495 3.565 104.495 -3 105 C-2.01 106.32 -1.02 107.64 0 109 C-0.33 109.99 -0.66 110.98 -1 112 C-17.66635478 99.77405946 -26.15728125 75.46701657 -29.58984375 55.95751953 C-30.26445028 51.09312455 -30.33817955 46.27979463 -30.3125 41.375 C-30.31121094 40.34117188 -30.30992188 39.30734375 -30.30859375 38.2421875 C-30.19745283 29.26200141 -28.99496152 20.73983142 -27 12 C-26.01 11.67 -25.02 11.34 -24 11 C-24 12.65 -24 14.3 -24 16 C-16.08 16 -8.16 16 0 16 C0 10.72 0 5.44 0 0 Z " fill="#7DD394" transform="translate(40,72)"/>
<path d="M0 0 C4.29 0 8.58 0 13 0 C13 2.31 13 4.62 13 7 C13.85271484 7.09087891 13.85271484 7.09087891 14.72265625 7.18359375 C16.33787008 7.35886737 17.95242992 7.54023762 19.56640625 7.7265625 C21.5414628 7.94847897 23.52039034 8.13574914 25.5 8.3125 C29.97030431 9.19059549 34.06765622 10.67743443 38 13 C38.99 14.485 38.99 14.485 40 16 C39.04270084 17.12588014 38.08412105 18.2506715 37.125 19.375 C36.59132813 20.00148438 36.05765625 20.62796875 35.5078125 21.2734375 C34.38567993 22.55836651 33.20628025 23.79371975 32 25 C32.66 25 33.32 25 34 25 C34.45375 24.21625 34.9075 23.4325 35.375 22.625 C37.07651113 19.8764051 38.04519084 19.12078968 41 18 C39.79618552 20.49361571 38.54571278 22.68143083 37 25 C36.67 31.27 36.34 37.54 36 44 C16.53 44 -2.94 44 -23 44 C-23.33 38.06 -23.66 32.12 -24 26 C-25.32 24.02 -26.64 22.04 -28 20 C-28 19.01 -28 18.02 -28 17 C-27.34 17.66 -26.68 18.32 -26 19 C-25.01 18.67 -24.02 18.34 -23 18 C-23 16.35 -23 14.7 -23 13 C-22.01 13 -21.02 13 -20 13 C-20 13.99 -20 14.98 -20 16 C-19.34 16 -18.68 16 -18 16 C-17.67 15.34 -17.34 14.68 -17 14 C-17 16.64 -17 19.28 -17 22 C-16.34 22 -15.68 22 -15 22 C-15.04125 21.05125 -15.0825 20.1025 -15.125 19.125 C-15 16 -15 16 -13 14 C-8.65604929 13.72082579 -4.35649033 13.91457862 0 14 C0 9.38 0 4.76 0 0 Z " fill="#C8E4C8" transform="translate(106,42)"/>
<path d="M0 0 C0.99 0.66 1.98 1.32 3 2 C5.62561843 2.2128051 8.14879 2.31124607 10.77612305 2.31884766 C11.56660034 2.32889328 12.35707764 2.3389389 13.17150879 2.34928894 C15.7849047 2.38018531 18.39819786 2.39717389 21.01171875 2.4140625 C22.8234801 2.43276897 24.6352327 2.45234199 26.44697571 2.4727478 C31.21610354 2.52413011 35.98525963 2.56372315 40.7545166 2.60089111 C45.62092109 2.64089257 50.48720738 2.69200249 55.35351562 2.7421875 C64.90226079 2.83901897 74.45107261 2.92340063 84 3 C84.11608726 6.27053517 84.18720711 9.5405418 84.25 12.8125 C84.28351563 13.74126953 84.31703125 14.67003906 84.3515625 15.62695312 C84.37089844 16.9659668 84.37089844 16.9659668 84.390625 18.33203125 C84.4220459 19.56530151 84.4220459 19.56530151 84.45410156 20.82348633 C84 23 84 23 82.09513855 24.74957275 C76.64991243 27.99940991 70.33410922 27.22064306 64.1875 27.25 C62.58551758 27.2809375 62.58551758 27.2809375 60.95117188 27.3125 C54.92097283 27.34233401 50.20118997 27.22082057 45 24 C44.0625 21.8125 44.0625 21.8125 44 20 C33.10113243 20.36882801 25.91782479 22.77826177 17 29 C15.67488335 29.6828529 14.34292666 30.35287543 13 31 C-8.19366438 16.84905253 -8.19366438 16.84905253 -9.9375 10.6875 C-9.958125 9.800625 -9.97875 8.91375 -10 8 C-10.66 7.01 -11.32 6.02 -12 5 C-7.38 5 -2.76 5 2 5 C1.34 3.35 0.68 1.7 0 0 Z " fill="#40B297" transform="translate(48,171)"/>
<path d="M0 0 C1.24003029 -0.01007584 1.24003029 -0.01007584 2.50511169 -0.02035522 C5.23157808 -0.03931557 7.957798 -0.04325855 10.68432617 -0.04541016 C12.58615723 -0.05183989 14.48798729 -0.05856838 16.38981628 -0.06558228 C20.37513521 -0.07755045 24.3603675 -0.08126361 28.34570312 -0.08007812 C33.43995969 -0.07987507 38.53365758 -0.10716589 43.62778187 -0.14162254 C47.55615261 -0.16391614 51.48438949 -0.1679149 55.412817 -0.16685867 C57.29020804 -0.16921136 59.16760295 -0.17801607 61.04493141 -0.19352341 C63.67748161 -0.21323159 66.30883468 -0.20732661 68.94140625 -0.1953125 C69.70895233 -0.20655151 70.47649841 -0.21779053 71.26730347 -0.22937012 C77.71236878 -0.15503916 82.92586286 1.67969782 87.64053345 6.17385864 C88.98605282 8.95441694 89.04588479 11.06948061 89.05297852 14.15722656 C89.062435 15.33880341 89.07189148 16.52038025 89.08163452 17.73776245 C89.07556183 19.01072174 89.06948914 20.28368103 89.06323242 21.59521484 C89.0661026 22.90708771 89.06897278 24.21896057 89.07192993 25.57058716 C89.07634871 28.34631966 89.0699391 31.1217622 89.0559082 33.89746094 C89.0388495 37.443844 89.04863847 40.98954422 89.0666256 44.53590202 C89.08012012 47.93072657 89.07064901 51.32537094 89.06323242 54.72021484 C89.06930511 55.98912567 89.07537781 57.2580365 89.08163452 58.56539917 C89.0674498 60.34722092 89.0674498 60.34722092 89.05297852 62.16503906 C89.05059174 63.20554413 89.04820496 64.24604919 89.04574585 65.31808472 C88.57980355 68.95368879 87.68635875 71.22699729 85.66479492 74.29052734 C80.8562304 77.66979272 76.45664514 77.72099845 70.80126953 77.67871094 C69.93060349 77.6839679 69.05993744 77.68922485 68.16288757 77.69464111 C65.29745312 77.70779804 62.43257835 77.69911907 59.56713867 77.68896484 C57.56986891 77.69098663 55.57259988 77.69389895 53.57533264 77.69766235 C49.39503939 77.70207972 45.21493878 77.69567283 41.03466797 77.68164062 C35.67902538 77.66453808 30.32383348 77.67440051 24.96820736 77.69235802 C20.84608061 77.70320222 16.7240606 77.69974676 12.60193062 77.69197464 C10.6271821 77.68997497 8.65242385 77.6924237 6.67768669 77.6994133 C3.91783873 77.7070394 1.15871952 77.69540778 -1.60107422 77.67871094 C-2.41523804 77.68478363 -3.22940186 77.69085632 -4.0682373 77.69711304 C-8.66632977 77.64562573 -11.76099658 77.27497221 -15.33520508 74.29052734 C-18.19368425 70.59712045 -18.7182614 67.83571839 -18.75512695 63.21850586 C-18.77899475 61.41622276 -18.77899475 61.41622276 -18.80334473 59.57752991 C-18.80354614 58.28785812 -18.80374756 56.99818634 -18.80395508 55.66943359 C-18.81106241 54.32331528 -18.81876225 52.97719997 -18.82702637 51.63108826 C-18.8404486 48.81427583 -18.84205021 45.99774359 -18.83618164 43.1809082 C-18.83028608 39.58156609 -18.86087851 35.98357316 -18.90129852 32.38449192 C-18.92722191 29.60565524 -18.9300489 26.82714153 -18.92640686 24.04820061 C-18.92891042 22.07954878 -18.9535734 20.11096517 -18.9786377 18.14247131 C-18.90171351 8.18391064 -18.90171351 8.18391064 -16.1105957 4.5559082 C-10.98494981 0.37215836 -6.45814471 -0.00756636 0 0 Z M-10.82641602 7.96470642 C-12.70347519 10.85822123 -12.84197465 12.5826315 -12.8527832 16.02124023 C-12.86539185 17.17245865 -12.87800049 18.32367706 -12.89099121 19.50978088 C-12.88289429 20.74840378 -12.87479736 21.98702667 -12.86645508 23.26318359 C-12.87028198 24.53777939 -12.87410889 25.81237518 -12.87805176 27.12559509 C-12.88077416 29.82020424 -12.87540398 32.51336197 -12.85668945 35.20776367 C-12.83387578 38.66047127 -12.84703969 42.11193678 -12.87097931 45.56459904 C-12.88890809 48.8600052 -12.87635684 52.15526124 -12.86645508 55.45068359 C-12.874552 56.69133072 -12.88264893 57.93197784 -12.89099121 59.21022034 C-12.87838257 60.35828659 -12.86577393 61.50635284 -12.8527832 62.68920898 C-12.84960083 63.7008461 -12.84641846 64.71248322 -12.84313965 65.754776 C-12.53164502 68.34404138 -12.53164502 68.34404138 -10.83314514 70.11634827 C-7.22310139 71.81328163 -3.75960067 71.70824454 0.14941406 71.67871094 C1.0034935 71.6839679 1.85757294 71.68922485 2.73753357 71.69464111 C5.55852586 71.70783707 8.37895322 71.69910527 11.19995117 71.68896484 C13.1600302 71.69098551 15.12010849 71.69389688 17.08018494 71.69766235 C21.18666751 71.702085 25.29295425 71.69565581 29.39941406 71.68164062 C34.66787558 71.66453754 39.93587901 71.67439746 45.20432377 71.69235802 C49.25088466 71.7031878 53.29733655 71.69975341 57.34390068 71.69197464 C59.2868092 71.68997099 61.22972756 71.69243768 63.17262459 71.6994133 C65.8852074 71.70701575 68.59704327 71.69544118 71.30957031 71.67871094 C72.51826279 71.68781998 72.51826279 71.68781998 73.75137329 71.69711304 C77.89203952 71.65400187 77.89203952 71.65400187 81.66174316 70.11634827 C83.06565917 67.56084781 83.05328943 65.60227995 83.06884766 62.68920898 C83.08153183 61.54114273 83.094216 60.39307648 83.10728455 59.21022034 C83.10434891 57.96957321 83.10141327 56.72892609 83.09838867 55.45068359 C83.10363052 54.17704453 83.10887238 52.90340546 83.11427307 51.59117126 C83.12070282 48.89502165 83.12077921 46.19971642 83.11083984 43.50366211 C83.09935424 40.0521884 83.11955191 36.60173841 83.14875698 33.15039921 C83.17153859 29.85465541 83.16465156 26.5589877 83.16088867 23.26318359 C83.17212265 22.0245607 83.18335663 20.78593781 83.19493103 19.50978088 C83.18555008 18.35856247 83.17616913 17.20734406 83.16650391 16.02124023 C83.16633774 15.00880753 83.16617157 13.99637482 83.16600037 12.95326233 C82.82499019 10.21545565 82.82499019 10.21545565 81.15699768 7.96470642 C77.63645206 5.59972075 74.38638678 5.73109307 70.2878418 5.77294922 C69.44512222 5.76593994 68.60240265 5.75893066 67.73414612 5.75170898 C64.95027656 5.73411289 62.1674247 5.74575725 59.38354492 5.75927734 C57.44828089 5.75658289 55.51301818 5.75270086 53.57775879 5.74768066 C49.52249254 5.74178343 45.46757879 5.75035585 41.41235352 5.76904297 C36.21336561 5.79183261 31.01520364 5.77871074 25.81624603 5.75475311 C21.82022881 5.74030124 17.82440751 5.74489833 13.8283844 5.75526428 C11.91142174 5.75793326 9.9944413 5.75465582 8.07749939 5.74534607 C5.39843609 5.73519052 2.72071158 5.75066708 0.04174805 5.77294922 C-0.75110092 5.76485229 -1.54394989 5.75675537 -2.36082458 5.74841309 C-5.78544206 5.80120066 -7.95361235 6.03408396 -10.82641602 7.96470642 Z " fill="#5D5D5D" transform="translate(77.335205078125,85.70947265625)"/>
<path d="M0 0 C1.91727905 0.00241699 1.91727905 0.00241699 3.87329102 0.00488281 C15.97276772 0.16206891 25.61948229 1.37523608 35.75 8.375 C37.19185712 9.15620687 38.64819523 9.91205977 40.125 10.625 C40.81335938 10.96015625 41.50171875 11.2953125 42.2109375 11.640625 C42.71882813 11.88296875 43.22671875 12.1253125 43.75 12.375 C43.75 13.035 43.75 13.695 43.75 14.375 C44.33910156 14.48585938 44.92820312 14.59671875 45.53515625 14.7109375 C51.9553356 16.635859 56.31962603 22.96956222 59.75 28.375 C59.75 29.035 59.75 29.695 59.75 30.375 C60.41 30.375 61.07 30.375 61.75 30.375 C67.45272745 42.21577761 69.05400178 51.40425735 68.75 64.375 C70.4 64.705 72.05 65.035 73.75 65.375 C73.75 65.705 73.75 66.035 73.75 66.375 C67 66.5 67 66.5 64.75 65.375 C64.42 68.015 64.09 70.655 63.75 73.375 C61.43331985 71.05831985 61.44700544 70.45119093 61.1875 67.3046875 C61.11273438 66.49 61.03796875 65.6753125 60.9609375 64.8359375 C60.85652344 63.55589844 60.85652344 63.55589844 60.75 62.25 C60.23295631 56.08377524 59.40494223 50.3465832 57.75 44.375 C57.09 44.375 56.43 44.375 55.75 44.375 C55.234375 43.199375 54.71875 42.02375 54.1875 40.8125 C51.83289423 36.08658912 48.60935761 32.90553342 44.75 29.375 C39.29177898 24.15936658 39.29177898 24.15936658 37.75 20.375 C37.21375 20.601875 36.6775 20.82875 36.125 21.0625 C32.6715242 21.51690471 30.77419458 20.00806507 27.75 18.375 C23.02955443 16.60138229 18.3192288 15.62619244 13.375 14.75 C12.63894531 14.6159375 11.90289062 14.481875 11.14453125 14.34375 C9.34705828 14.01693673 7.54862367 13.69541989 5.75 13.375 C5.75 11.065 5.75 8.755 5.75 6.375 C1.46 6.375 -2.83 6.375 -7.25 6.375 C-7.25 8.685 -7.25 10.995 -7.25 13.375 C-8.20519531 13.54515625 -9.16039062 13.7153125 -10.14453125 13.890625 C-16.34494158 15.05281557 -22.18932809 16.19129123 -28.0625 18.5625 C-31.80345429 20.05776999 -34.48348385 20.50971458 -38.5 20.25 C-42.54632002 20.03023182 -44.30140315 20.72109107 -47.375 23.375 C-48.35664752 24.3521238 -49.32411865 25.34488035 -50.25 26.375 C-50.91 26.045 -51.57 25.715 -52.25 25.375 C-51.59 24.715 -50.93 24.055 -50.25 23.375 C-50.62125 21.9828125 -50.62125 21.9828125 -51 20.5625 C-51.0825 19.510625 -51.165 18.45875 -51.25 17.375 C-48.36938104 14.42891242 -46.16531989 12.68010663 -42.25 11.375 C-41.78335938 10.90449219 -41.31671875 10.43398438 -40.8359375 9.94921875 C-37.30754889 6.44690198 -32.07337097 4.52384661 -27.1875 4.125 C-26.548125 4.2075 -25.90875 4.29 -25.25 4.375 C-25.25 3.715 -25.25 3.055 -25.25 2.375 C-16.80298775 0.49379712 -8.64042171 -0.01130871 0 0 Z " fill="#F9FCF8" transform="translate(113.25,35.625)"/>
<path d="M0 0 C0.495 1.98 0.495 1.98 1 4 C2.65 4 4.3 4 6 4 C6 4.66 6 5.32 6 6 C6.928125 6.28875 7.85625 6.5775 8.8125 6.875 C12 8 12 8 15 10 C15 10.66 15 11.32 15 12 C15.66 12 16.32 12 17 12 C17 12.66 17 13.32 17 14 C17.66 14 18.32 14 19 14 C19.495 15.485 19.495 15.485 20 17 C17.35104416 18.1037316 14.71290665 19.0684128 12 20 C11.0203125 20.35964844 10.040625 20.71929687 9.03125 21.08984375 C-10.82355249 27.26152461 -36.61425768 26.38405421 -56 19 C-58.515625 17.33203125 -58.515625 17.33203125 -60 16 C-58.71034824 14.62437146 -57.37310707 13.29233607 -56 12 C-55.34 12 -54.68 12 -54 12 C-53.67 11.01 -53.34 10.02 -53 9 C-51.07421875 7.61328125 -51.07421875 7.61328125 -48.6875 6.3125 C-47.90761719 5.87550781 -47.12773438 5.43851563 -46.32421875 4.98828125 C-44 4 -44 4 -40 4 C-39.67 3.34 -39.34 2.68 -39 2 C-39 2.66 -39 3.32 -39 4 C-32.65977251 6.26050724 -26.68958329 6.33294494 -20 6.3125 C-18.94554687 6.32861328 -17.89109375 6.34472656 -16.8046875 6.36132812 C-10.80559409 6.36508696 -6.21694636 6.09393902 -1 3 C-0.67 2.01 -0.34 1.02 0 0 Z " fill="#C7E4C9" transform="translate(132,191)"/>
<path d="M0 0 C3.1947449 2.59230729 3.97853711 5.36827527 5.125 9.25 C5.45757812 10.34828125 5.79015625 11.4465625 6.1328125 12.578125 C10.64938302 30.40026812 9.12703254 50.49026833 4 68 C3.67 68 3.34 68 3 68 C2.67 65.69 2.34 63.38 2 61 C-0.97 60.67 -3.94 60.34 -7 60 C-7 59.34 -7 58.68 -7 58 C-8.32 57.67 -9.64 57.34 -11 57 C-10.51144531 56.3090625 -10.02289063 55.618125 -9.51953125 54.90625 C-7.73667786 51.49637102 -7.6294185 49.32444314 -7.6875 45.5 C-7.69330078 43.84484375 -7.69330078 43.84484375 -7.69921875 42.15625 C-8.23296572 36.55537266 -10.03185853 33.83587008 -14 30 C-14 29.34 -14 28.68 -14 28 C-14.515625 27.896875 -15.03125 27.79375 -15.5625 27.6875 C-18.86026435 26.75736134 -21.86633332 25.38604488 -25 24 C-25 19.38 -25 14.76 -25 10 C-24.34 9.67 -23.68 9.34 -23 9 C-23 9.99 -23 10.98 -23 12 C-15.08 12 -7.16 12 1 12 C1.33 9.36 1.66 6.72 2 4 C0.35 4 -1.3 4 -3 4 C-3 3.34 -3 2.68 -3 2 C-2.01 1.34 -1.02 0.68 0 0 Z " fill="#7ED494" transform="translate(207,76)"/>
<path d="M0 0 C0.061875 0.928125 0.061875 0.928125 0.125 1.875 C0.41375 2.57625 0.7025 3.2775 1 4 C3.99615946 5.3045656 3.99615946 5.3045656 7 6 C7 6.66 7 7.32 7 8 C8.3303125 8.433125 8.3303125 8.433125 9.6875 8.875 C12.50471335 9.83178944 15.24427605 10.88268773 18 12 C18.02578125 12.99 18.0515625 13.98 18.078125 15 C18.4254137 24.14295389 19.23250622 30.86494585 25.5625 37.8125 C26.366875 38.534375 27.17125 39.25625 28 40 C29 41 30 42 31 43 C26.125 44 26.125 44 25 44 C25 44.66 25 45.32 25 46 C18.565 46.495 18.565 46.495 12 47 C12.99 48.32 13.98 49.64 15 51 C14.67 51.99 14.34 52.98 14 54 C10.00569523 51.06989721 7.03842495 47.82611493 4.1875 43.8125 C3.54663452 42.91132446 3.54663452 42.91132446 2.89282227 41.99194336 C-0.38096664 37.22625511 -3.08002811 32.28010247 -5.5625 27.0625 C-5.89677002 26.36552002 -6.23104004 25.66854004 -6.57543945 24.95043945 C-9.05872497 19.49347992 -10.69054255 14.53198937 -9.0625 8.5625 C-8.711875 7.716875 -8.36125 6.87125 -8 6 C-5.69 6 -3.38 6 -1 6 C-0.67 4.02 -0.34 2.04 0 0 Z " fill="#57BE97" transform="translate(25,130)"/>
<path d="M0 0 C0.763125 0.061875 1.52625 0.12375 2.3125 0.1875 C2.3125 0.8475 2.3125 1.5075 2.3125 2.1875 C3.26962891 2.17009766 3.26962891 2.17009766 4.24609375 2.15234375 C5.07238281 2.14332031 5.89867187 2.13429687 6.75 2.125 C7.57371094 2.11339844 8.39742187 2.10179687 9.24609375 2.08984375 C11.3125 2.1875 11.3125 2.1875 12.3125 3.1875 C13.80889546 18.40085381 2.64733166 34.80183411 -6.6875 46.1875 C-7.0175 44.8675 -7.3475 43.5475 -7.6875 42.1875 C-8.6465625 42.4659375 -8.6465625 42.4659375 -9.625 42.75 C-13.76084611 43.34083516 -17.5726173 42.77021759 -21.6875 42.1875 C-22.6875 39.1875 -22.6875 39.1875 -21.6875 36.1875 C-22.6775 35.8575 -23.6675 35.5275 -24.6875 35.1875 C-23.924375 34.5275 -23.16125 33.8675 -22.375 33.1875 C-17.07414349 27.76651076 -16.64775548 22.2514129 -16.625 15 C-16.45703125 11.34375 -16.45703125 11.34375 -15.6875 8.1875 C-13.2598175 6.06055375 -11.17332589 5.12360654 -8.1328125 4.08203125 C-4.65683404 2.81046725 -3.73280599 0.26042833 0 0 Z " fill="#56BE96" transform="translate(197.6875,133.8125)"/>
<path d="M0 0 C12.87 0 25.74 0 39 0 C39.0825 3.238125 39.165 6.47625 39.25 9.8125 C39.28641602 10.82932861 39.32283203 11.84615723 39.36035156 12.89379883 C39.3703418 13.69841553 39.38033203 14.50303223 39.390625 15.33203125 C39.41157227 16.15421143 39.43251953 16.9763916 39.45410156 17.82348633 C39 20 39 20 37.22558594 21.72924805 C31.64273664 24.91691047 25.44398373 24.22011829 19.1875 24.25 C17.58551758 24.2809375 17.58551758 24.2809375 15.95117188 24.3125 C14.90896484 24.31765625 13.86675781 24.3228125 12.79296875 24.328125 C11.8496167 24.3374707 10.90626465 24.34681641 9.93432617 24.35644531 C7 24 7 24 0 21 C0 14.07 0 7.14 0 0 Z " fill="#30373B" transform="translate(93,174)"/>
<path d="M0 0 C4.29 0 8.58 0 13 0 C13 4.62 13 9.24 13 14 C17.29 14 21.58 14 26 14 C26 17.96 26 21.92 26 26 C21.71 26 17.42 26 13 26 C13 30.29 13 34.58 13 39 C8.71 39 4.42 39 0 39 C0 34.71 0 30.42 0 26 C-6.435 26.495 -6.435 26.495 -13 27 C-13 22.71 -13 18.42 -13 14 C-8.71 14 -4.42 14 0 14 C0 9.38 0 4.76 0 0 Z " fill="#C52829" transform="translate(106,42)"/>
<path d="M0 0 C1.24003029 -0.01007584 1.24003029 -0.01007584 2.50511169 -0.02035522 C5.23157808 -0.03931557 7.957798 -0.04325855 10.68432617 -0.04541016 C12.58615723 -0.05183989 14.48798729 -0.05856838 16.38981628 -0.06558228 C20.37513521 -0.07755045 24.3603675 -0.08126361 28.34570312 -0.08007812 C33.43995969 -0.07987507 38.53365758 -0.10716589 43.62778187 -0.14162254 C47.55615261 -0.16391614 51.48438949 -0.1679149 55.412817 -0.16685867 C57.29020804 -0.16921136 59.16760295 -0.17801607 61.04493141 -0.19352341 C63.67748161 -0.21323159 66.30883468 -0.20732661 68.94140625 -0.1953125 C69.70895233 -0.20655151 70.47649841 -0.21779053 71.26730347 -0.22937012 C77.7429591 -0.15468636 82.72794407 1.95832226 87.78979492 5.97802734 C89.22070895 9.7597287 88.25293762 13.63186216 86.66479492 17.29052734 C85.17979492 17.78552734 85.17979492 17.78552734 83.66479492 18.29052734 C83.47143555 17.66404297 83.27807617 17.03755859 83.07885742 16.39208984 C82.68827148 15.16619141 82.68827148 15.16619141 82.28979492 13.91552734 C82.03456055 13.10341797 81.77932617 12.29130859 81.51635742 11.45458984 C80.76625209 9.1259355 80.76625209 9.1259355 78.66479492 7.29052734 C75.91001457 7.08668827 73.25534842 7.00735058 70.49902344 7.01586914 C69.23297272 7.00820274 69.23297272 7.00820274 67.94134521 7.00038147 C65.14205906 6.9864437 62.34301797 6.98744539 59.54370117 6.98974609 C57.60318408 6.98586141 55.66266784 6.98152721 53.72215271 6.97676086 C49.65084072 6.96928961 45.57961543 6.96959644 41.50830078 6.97485352 C36.28464247 6.98064877 31.06133866 6.96372016 25.83773899 6.94050884 C21.82893286 6.92579416 17.82021255 6.92489672 13.8113842 6.92801857 C11.88521561 6.9275042 9.95904236 6.9222448 8.03289986 6.91220665 C5.34168432 6.89990361 2.65116489 6.90659685 -0.04003906 6.91821289 C-0.8396254 6.91056915 -1.63921173 6.90292542 -2.46302795 6.89505005 C-6.59886075 6.90463512 -6.59886075 6.90463512 -10.2794342 8.58332825 C-11.95592171 11.29423648 -12.58168188 14.21847121 -13.33520508 17.29052734 C-14.65520508 17.62052734 -15.97520508 17.95052734 -17.33520508 18.29052734 C-19.02586211 9.82050301 -19.02586211 9.82050301 -17.46411133 6.36083984 C-12.67707794 0.36586346 -7.20501394 -0.0084414 0 0 Z " fill="#666866" transform="translate(77.335205078125,85.70947265625)"/>
<path d="M0 0 C0.84820312 0.144375 1.69640625 0.28875 2.5703125 0.4375 C14.57907127 2.3377871 26.10738107 3.06906295 38 0 C38.10807131 1.93627769 38.1856225 3.87427756 38.25 5.8125 C38.29640625 6.89144531 38.3428125 7.97039062 38.390625 9.08203125 C38 12 38 12 36.234375 13.82421875 C30.52653324 16.82782079 24.35297662 16.18377562 18.0625 16.1875 C16.43538086 16.20586914 16.43538086 16.20586914 14.77539062 16.22460938 C13.72673828 16.22654297 12.67808594 16.22847656 11.59765625 16.23046875 C10.64383057 16.23457764 9.69000488 16.23868652 8.70727539 16.24291992 C5.75578561 15.97808699 3.62473768 15.37103602 1 14 C0.1875 11.375 0.1875 11.375 0 9 C0.87011719 9.2165625 0.87011719 9.2165625 1.7578125 9.4375 C6.26659675 10.50889428 10.33054247 11.23945936 15 11 C13.87851563 10.81824219 13.87851563 10.81824219 12.734375 10.6328125 C11.25710937 10.38144531 11.25710937 10.38144531 9.75 10.125 C8.28820312 9.88136719 8.28820312 9.88136719 6.796875 9.6328125 C4.22735883 9.05144152 2.27928944 8.29159735 0 7 C0 6.34 0 5.68 0 5 C2.97 5.33 5.94 5.66 9 6 C7.700625 5.566875 6.40125 5.13375 5.0625 4.6875 C2.84765625 3.94921875 2.84765625 3.94921875 1 3 C0.67 2.01 0.34 1.02 0 0 Z " fill="#202325" transform="translate(94,182)"/>
<path d="M0 0 C4.36350222 2.22291622 7.09544338 4.45022584 9 9 C9.41791045 15.1641791 9.41791045 15.1641791 8 18 C4.18751574 18.02887236 0.3750593 18.04675492 -3.4375 18.0625 C-4.52611328 18.07087891 -5.61472656 18.07925781 -6.73632812 18.08789062 C-7.77080078 18.09111328 -8.80527344 18.09433594 -9.87109375 18.09765625 C-10.82943115 18.10289307 -11.78776855 18.10812988 -12.77514648 18.11352539 C-15 18 -15 18 -16 17 C-16.67654612 13.0092343 -16.85315603 9.42280175 -14.73046875 5.8828125 C-10.32757307 0.71931927 -6.960226 -0.93321466 0 0 Z " fill="#FCFB8E" transform="translate(90,116)"/>
<path d="M0 0 C3.78171013 2.03630545 7.09528802 4.08475871 9 8 C9.28731883 11.02216848 9.31859525 13.97947191 9 17 C8 18 8 18 5.77514648 18.11352539 C4.81680908 18.10828857 3.85847168 18.10305176 2.87109375 18.09765625 C1.31938477 18.09282227 1.31938477 18.09282227 -0.26367188 18.08789062 C-1.35228516 18.07951172 -2.44089844 18.07113281 -3.5625 18.0625 C-5.2012207 18.05573242 -5.2012207 18.05573242 -6.87304688 18.04882812 C-9.58208495 18.03699826 -12.29101599 18.02051543 -15 18 C-16.5547669 14.89046621 -16.28644437 12.43733239 -16 9 C-12.32317126 1.9187002 -8.0382172 -0.98714948 0 0 Z " fill="#FCFC8F" transform="translate(142,116)"/>
<path d="M0 0 C1.05574219 -0.00064453 2.11148438 -0.00128906 3.19921875 -0.00195312 C12.8503779 0.06192338 22.3145223 0.9247954 31.875 2.1875 C31.875 2.5175 31.875 2.8475 31.875 3.1875 C29.895 3.5175 27.915 3.8475 25.875 4.1875 C25.875 4.8475 25.875 5.5075 25.875 6.1875 C25.28253479 6.18527939 24.69006958 6.18305878 24.07965088 6.18077087 C17.9154114 6.15865393 11.7511832 6.14356656 5.58691406 6.13256836 C3.28612816 6.12753843 0.98534545 6.12071376 -1.31542969 6.11206055 C-4.62175282 6.09993641 -7.9280337 6.09425828 -11.234375 6.08984375 C-12.26367126 6.08468246 -13.29296753 6.07952118 -14.35345459 6.07420349 C-15.31414856 6.07412796 -16.27484253 6.07405243 -17.26464844 6.07397461 C-18.10848083 6.071754 -18.95231323 6.06953339 -19.82171631 6.06724548 C-22.11011766 6.18672299 -23.98434464 6.35933791 -26.125 7.1875 C-26.455 8.1775 -26.785 9.1675 -27.125 10.1875 C-29.1875 11.375 -29.1875 11.375 -31.125 12.1875 C-31.125 12.8475 -31.125 13.5075 -31.125 14.1875 C-31.846875 14.001875 -32.56875 13.81625 -33.3125 13.625 C-36.28210817 13.16306095 -38.21424744 13.59042255 -41.125 14.1875 C-43.4375 13.75 -43.4375 13.75 -45.125 13.1875 C-44.465 13.1875 -43.805 13.1875 -43.125 13.1875 C-43.125 12.5275 -43.125 11.8675 -43.125 11.1875 C-40.485 10.5275 -37.845 9.8675 -35.125 9.1875 C-35.125 8.5275 -35.125 7.8675 -35.125 7.1875 C-34.27035156 6.98253906 -33.41570312 6.77757812 -32.53515625 6.56640625 C-31.43042969 6.29699219 -30.32570313 6.02757812 -29.1875 5.75 C-28.08535156 5.48316406 -26.98320313 5.21632813 -25.84765625 4.94140625 C-23.23078746 4.45754275 -23.23078746 4.45754275 -22.125 3.1875 C-20.12541636 3.14669217 -18.12454746 3.14495644 -16.125 3.1875 C-16.125 2.5275 -16.125 1.8675 -16.125 1.1875 C-10.72087293 -0.02422834 -5.51731123 -0.0034613 0 0 Z " fill="#C9FB92" transform="translate(107.125,9.8125)"/>
<path d="M0 0 C0 0.66 0 1.32 0 2 C0.639375 2.268125 1.27875 2.53625 1.9375 2.8125 C4 4 4 4 5 7 C5.0685495 8.89470816 5.08480372 10.7916834 5.0625 12.6875 C5.05347656 13.68136719 5.04445313 14.67523438 5.03515625 15.69921875 C5.02355469 16.45847656 5.01195313 17.21773437 5 18 C1.63856582 16.87952194 0.42471166 15.50292817 -2 13 C-5.22798762 11.38600619 -8.51042829 11.40327026 -12 12 C-14.42530813 13.41917594 -15.98024727 14.98024727 -18 17 C-18.66 17.66 -19.32 18.32 -20 19 C-20.55353075 6.33029613 -20.55353075 6.33029613 -17 1 C-16.01 1 -15.02 1 -14 1 C-14 0.34 -14 -0.32 -14 -1 C-9.04653013 -2.59789351 -4.86717585 -1.28306814 0 0 Z " fill="#605F5E" transform="translate(94,105)"/>
<path d="M0 0 C1.32 0.33 2.64 0.66 4 1 C4 1.66 4 2.32 4 3 C4.928125 3.165 5.85625 3.33 6.8125 3.5 C10.20005074 5.09414152 10.57728934 5.38337646 11.9375 8.625 C13.68588799 14.3697034 13.1117706 18.85881218 10.3125 24.25 C7.79964999 27.23825406 5.39098718 29.08335507 2 31 C1.34 31 0.68 31 0 31 C0 20.77 0 10.54 0 0 Z " fill="#C8E4CA" transform="translate(182,107)"/>
<path d="M0 0 C0 10.23 0 20.46 0 31 C-4.97449748 30.0051005 -5.97861788 29.69280037 -9 26 C-9 25.34 -9 24.68 -9 24 C-9.66 24 -10.32 24 -11 24 C-12.06385483 20.80843552 -12.16677982 18.41502524 -12.1875 15.0625 C-12.20167969 14.02222656 -12.21585938 12.98195313 -12.23046875 11.91015625 C-11.93227092 8.14477688 -11.17031343 6.0716123 -8.37890625 3.515625 C-7.77949219 3.09796875 -7.18007813 2.6803125 -6.5625 2.25 C-5.96566406 1.82203125 -5.36882813 1.3940625 -4.75390625 0.953125 C-3 0 -3 0 0 0 Z " fill="#C7E4C9" transform="translate(43,107)"/>
<path d="M0 0 C0.33 0 0.66 0 1 0 C1.01213028 1.05449593 1.01213028 1.05449593 1.02450562 2.1302948 C1.10255112 8.76587067 1.18987159 15.40125272 1.28752708 22.03657055 C1.33740404 25.44759771 1.38373441 28.8585952 1.421875 32.26977539 C1.46591305 36.1943487 1.52552919 40.11861191 1.5859375 44.04296875 C1.59748871 45.26396774 1.60903992 46.48496674 1.62094116 47.7429657 C1.64081085 48.8837709 1.66068054 50.02457611 1.68115234 51.19995117 C1.69447601 52.20144699 1.70779968 53.20294281 1.7215271 54.23478699 C2.01938411 57.19248261 2.64680601 59.35708345 4 62 C6.40952023 63.24714403 6.40952023 63.24714403 9 64 C10.485 64.99 10.485 64.99 12 66 C11.67 66.33 11.34 66.66 11 67 C11.99 67 12.98 67 14 67 C14 67.99 14 68.98 14 70 C19.28 70 24.56 70 30 70 C30 70.33 30 70.66 30 71 C25.64596135 71.08755672 21.29215123 71.14057969 16.9375 71.1875 C15.70837891 71.21263672 14.47925781 71.23777344 13.21289062 71.26367188 C1.55712665 71.35792334 1.55712665 71.35792334 -4 68 C-6.3862 64.64440625 -7.04993726 62.8655791 -6.8125 58.75 C-6 56 -6 56 -4 54 C-3.01 54 -2.02 54 -1 54 C-0.67 36.18 -0.34 18.36 0 0 Z " fill="#C0DBC2" transform="translate(58,98)"/>
<path d="M0 0 C10.85119653 -0.74266744 20.46690697 1.99237612 29 9 C29 9.66 29 10.32 29 11 C29.99 10.67 30.98 10.34 32 10 C31.67 11.32 31.34 12.64 31 14 C31.66 14.33 32.32 14.66 33 15 C31.35 15.33 29.7 15.66 28 16 C28.33 15.01 28.66 14.02 29 13 C27.68 13 26.36 13 25 13 C25 13.66 25 14.32 25 15 C23.02 15.66 21.04 16.32 19 17 C18.67 16.01 18.34 15.02 18 14 C17.34 14 16.68 14 16 14 C16 13.34 16 12.68 16 12 C15.34 12 14.68 12 14 12 C13.38125 11.3503125 13.38125 11.3503125 12.75 10.6875 C10.44703684 8.46678553 7.88157583 7.34473539 5 6 C5 5.34 5 4.68 5 4 C3.35 4 1.7 4 0 4 C0 2.68 0 1.36 0 0 Z " fill="#F0F3F2" transform="translate(133,191)"/>
<path d="M0 0 C0 0.66 0 1.32 0 2 C0.598125 2.226875 1.19625 2.45375 1.8125 2.6875 C4.68011113 4.40806668 5.62059949 5.96531888 7 9 C7.1875 12.3125 7.1875 12.3125 7 15 C6.51789063 14.57847656 6.03578125 14.15695313 5.5390625 13.72265625 C4.59160156 12.90087891 4.59160156 12.90087891 3.625 12.0625 C2.68527344 11.24458984 2.68527344 11.24458984 1.7265625 10.41015625 C-1.79041726 7.53769088 -4.51692319 7.62641027 -9 8 C-13.00027838 10.15399605 -15.391729 12.3484206 -18 16 C-17.80930006 7.07177576 -17.80930006 7.07177576 -14.6875 2.9375 C-9.85153348 -0.54889447 -5.81025322 -0.09683755 0 0 Z " fill="#5E5D5E" transform="translate(144,109)"/>
<path d="M0 0 C0.99 0 1.98 0 3 0 C3 0.99 3 1.98 3 3 C3.66 3 4.32 3 5 3 C5.33 2.34 5.66 1.68 6 1 C6 3.64 6 6.28 6 9 C6.66 9 7.32 9 8 9 C8 7.02 8 5.04 8 3 C8.33 3 8.66 3 9 3 C9.33 6.63 9.66 10.26 10 14 C8.35 14.33 6.7 14.66 5 15 C4.67 15.66 4.34 16.32 4 17 C4.33 14.36 4.66 11.72 5 9 C4.34 9 3.68 9 3 9 C3 16.26 3 23.52 3 31 C2.01 31 1.02 31 0 31 C-0.02578125 29.77023438 -0.0515625 28.54046875 -0.078125 27.2734375 C-0.13443006 25.64059068 -0.19177685 24.00777955 -0.25 22.375 C-0.26417969 21.56675781 -0.27835937 20.75851563 -0.29296875 19.92578125 C-0.51641859 14.42891513 -1.61907025 11.50339843 -5 7 C-5 6.01 -5 5.02 -5 4 C-4.34 4.66 -3.68 5.32 -3 6 C-2.01 5.67 -1.02 5.34 0 5 C0 3.35 0 1.7 0 0 Z " fill="#C5E3C7" transform="translate(83,55)"/>
<path d="M0 0 C0.66 0 1.32 0 2 0 C2.33 1.65 2.66 3.3 3 5 C3.66 4.67 4.32 4.34 5 4 C5.53763149 16.63433994 4.23598276 27.77838653 1 40 C0.67 40 0.34 40 0 40 C-0.144375 38.948125 -0.28875 37.89625 -0.4375 36.8125 C-0.92163439 33.17065634 -0.92163439 33.17065634 -1.625 30.3125 C-2.02258587 27.86072047 -1.7786753 26.3360259 -1 24 C-1.99 24 -2.98 24 -4 24 C-2.125 17.125 -2.125 17.125 -1 16 C-0.76321284 13.30764224 -0.57801975 10.63501844 -0.4375 7.9375 C-0.39431641 7.17888672 -0.35113281 6.42027344 -0.30664062 5.63867188 C-0.20026367 3.75934562 -0.09960066 1.87969756 0 0 Z " fill="#74D199" transform="translate(210,104)"/>
<path d="M0 0 C1.26457031 0.48855469 2.52914062 0.97710937 3.83203125 1.48046875 C9.17982062 3.25887825 14.09287742 3.41276205 19.6875 3.3125 C21.05358398 3.31733398 21.05358398 3.31733398 22.44726562 3.32226562 C27.36649277 3.28296897 31.38794967 2.89157825 36 1 C36.99 0.67 37.98 0.34 39 0 C39 0.99 39 1.98 39 3 C26.77054323 7.73398327 13.36661476 7.12220492 1 3 C3.17294969 6.25942453 4.20907954 6.69891647 7.88720703 7.62011719 C11.87953763 8.33794321 15.8904126 8.47727362 19.9375 8.625 C20.81212891 8.66367188 21.68675781 8.70234375 22.58789062 8.7421875 C24.72494631 8.8356107 26.86244294 8.91885398 29 9 C29 9.33 29 9.66 29 10 C25.64590806 10.05859857 22.29194983 10.09379582 18.9375 10.125 C17.99455078 10.14175781 17.05160156 10.15851563 16.08007812 10.17578125 C10.63476062 10.21372771 6.14500612 9.81252643 1 8 C1.86468039 10.27091313 1.86468039 10.27091313 4.5703125 11.0859375 C8.35313774 12.09411644 11.98537898 12.44718875 15.875 12.625 C16.87853516 12.68300781 16.87853516 12.68300781 17.90234375 12.7421875 C22.60571436 12.99593389 27.29031114 13.03160865 32 13 C32 13.33 32 13.66 32 14 C27.57046161 15.09209526 23.22317626 15.18351084 18.6875 15.1875 C17.96626953 15.19974609 17.24503906 15.21199219 16.50195312 15.22460938 C11.35604523 15.23845487 6.9486185 14.41468981 2 13 C2 13.99 2 14.98 2 16 C1.34 16 0.68 16 0 16 C0 10.72 0 5.44 0 0 Z " fill="#353F41" transform="translate(93,179)"/>
<path d="M0 0 C3 2.375 3 2.375 5 5 C5 5.66 5 6.32 5 7 C5.66 7 6.32 7 7 7 C7 9.64 7 12.28 7 15 C6.401875 14.21625 5.80375 13.4325 5.1875 12.625 C3.08914751 9.85425677 3.08914751 9.85425677 0 8 C0 7.34 0 6.68 0 6 C-5.94 6.495 -5.94 6.495 -12 7 C-12.33 7.99 -12.66 8.98 -13 10 C-13.99 10.66 -14.98 11.32 -16 12 C-16.72965366 14.56282742 -16.72965366 14.56282742 -17 17 C-17.33 17 -17.66 17 -18 17 C-18.36607134 10.89881096 -17.37885249 6.99942271 -13.5625 2.1875 C-9.80637281 -0.66715667 -4.53675397 -0.82649775 0 0 Z " fill="#40403F" transform="translate(144,103)"/>
<path d="M0 0 C0.33 0 0.66 0 1 0 C1 2.64 1 5.28 1 8 C-7.25 8 -15.5 8 -24 8 C-24 5.69 -24 3.38 -24 1 C-16.08 1.33 -8.16 1.66 0 2 C0 1.34 0 0.68 0 0 Z " fill="#4A4A4B" transform="translate(98,132)"/>
<path d="M0 0 C0.33 0 0.66 0 1 0 C1 1.65 1 3.3 1 5 C1.66 5 2.32 5 3 5 C3 20.84 3 36.68 3 53 C1.515 53.495 1.515 53.495 0 54 C0 36.18 0 18.36 0 0 Z " fill="#585858" transform="translate(160,99)"/>
<path d="M0 0 C0.33 0.66 0.66 1.32 1 2 C1.66 2 2.32 2 3 2 C2 4 2 4 1 5 C1.33 5.99 1.66 6.98 2 8 C2.66 7.01 3.32 6.02 4 5 C5.87824891 6.87824891 5.39102397 10.03935276 5.5625 12.5625 C5.64628906 13.76003906 5.73007812 14.95757812 5.81640625 16.19140625 C5.87699219 17.11824219 5.93757813 18.04507813 6 19 C6.66 19 7.32 19 8 19 C8 19.66 8 20.32 8 21 C9.32 21.66 10.64 22.32 12 23 C12 23.66 12 24.32 12 25 C14.475 25.99 14.475 25.99 17 27 C17 27.99 17 28.98 17 30 C12.87248551 29.39301257 9.6678852 27.96189209 6 26 C6 25.34 6 24.68 6 24 C5.01 23.67 4.02 23.34 3 23 C-1.24700298 16.89226996 -1.72160799 10.21607987 -1 3 C-0.67 2.01 -0.34 1.02 0 0 Z " fill="#F0F8F2" transform="translate(26,112)"/>
<path d="M0 0 C0.33 0.66 0.66 1.32 1 2 C8.92 1.67 16.84 1.34 25 1 C25 3.31 25 5.62 25 8 C17.41 8 9.82 8 2 8 C0 4 0 4 0 0 Z " fill="#4B4B4C" transform="translate(126,132)"/>
<path d="M0 0 C1.63001953 0.01353516 1.63001953 0.01353516 3.29296875 0.02734375 C4.12441406 0.03894531 4.95585938 0.05054688 5.8125 0.0625 C5.8125 1.3825 5.8125 2.7025 5.8125 4.0625 C4.595625 4.495625 3.37875 4.92875 2.125 5.375 C-2.19618036 6.99639865 -5.89185861 8.76685861 -9.1875 12.0625 C-9.8475 11.4025 -10.5075 10.7425 -11.1875 10.0625 C-11.1875 10.7225 -11.1875 11.3825 -11.1875 12.0625 C-14.1875 11.0625 -14.1875 11.0625 -15.875 8 C-16.308125 7.030625 -16.74125 6.06125 -17.1875 5.0625 C-15.917947 4.41415346 -14.64680294 3.76892185 -13.375 3.125 C-12.66730469 2.76535156 -11.95960937 2.40570313 -11.23046875 2.03515625 C-7.31789087 0.17238017 -4.28875448 -0.04611564 0 0 Z " fill="#EBF1EF" transform="translate(86.1875,190.9375)"/>
<path d="M0 0 C0 0.66 0 1.32 0 2 C0.639375 2.268125 1.27875 2.53625 1.9375 2.8125 C4 4 4 4 5 7 C5.06740865 8.56118428 5.08514456 10.1250252 5.0625 11.6875 C5.05347656 12.49574219 5.04445313 13.30398437 5.03515625 14.13671875 C5.02355469 14.75160156 5.01195313 15.36648437 5 16 C4.67 16 4.34 16 4 16 C3.731875 15.071875 3.46375 14.14375 3.1875 13.1875 C1.79107109 9.43919082 0.58710355 7.95785544 -2.7734375 5.9296875 C-5.42522498 4.82244992 -7.38822968 4.79969025 -10.25 4.875 C-11.58804688 4.90207031 -11.58804688 4.90207031 -12.953125 4.9296875 C-13.62859375 4.95289062 -14.3040625 4.97609375 -15 5 C-15.66 6.32 -16.32 7.64 -17 9 C-17.99 9 -18.98 9 -20 9 C-18.125 3.25 -18.125 3.25 -17 1 C-16.01 1 -15.02 1 -14 1 C-14 0.34 -14 -0.32 -14 -1 C-9.04653013 -2.59789351 -4.86717585 -1.28306814 0 0 Z " fill="#404040" transform="translate(94,105)"/>
<path d="M0 0 C5.3503559 0.57021934 10.67787852 1.20734361 16 2 C16.33 2.99 16.66 3.98 17 5 C18.32 5 19.64 5 21 5 C21 5.66 21 6.32 21 7 C20.01 7 19.02 7 18 7 C18 7.66 18 8.32 18 9 C17.01 8.67 16.02 8.34 15 8 C14.67 11.96 14.34 15.92 14 20 C9.38 20 4.76 20 0 20 C0 19.67 0 19.34 0 19 C4.29 19 8.58 19 13 19 C13 15.04 13 11.08 13 7 C8.71 7 4.42 7 0 7 C0 4.69 0 2.38 0 0 Z " fill="#C5D3B7" transform="translate(119,49)"/>
<path d="M0 0 C1.33656281 0.32013862 2.66937998 0.65599529 4 1 C5.42381219 1.08529849 6.85104096 1.12204643 8.27740479 1.12025452 C9.12431885 1.12162918 9.97123291 1.12300385 10.84381104 1.12442017 C12.22485016 1.11902725 12.22485016 1.11902725 13.63378906 1.11352539 C14.60973022 1.11367142 15.58567139 1.11381744 16.59118652 1.1139679 C19.81602198 1.1132714 23.04079963 1.10549126 26.265625 1.09765625 C28.50193246 1.09579114 30.73824033 1.09436767 32.97454834 1.09336853 C38.85999683 1.08955071 44.74542064 1.07972666 50.63085938 1.06866455 C56.63671535 1.05843466 62.64257532 1.05386752 68.6484375 1.04882812 C80.43230251 1.03810376 92.2161492 1.02103612 104 1 C104.99 2.98 104.99 2.98 106 5 C105.42587246 4.83748025 104.85174492 4.6749605 104.26021957 4.50751591 C102.02995098 4.00672527 100.11710782 3.87679131 97.83648682 3.87974548 C97.01481522 3.87837082 96.19314362 3.87699615 95.34657288 3.87557983 C94.45393234 3.87917511 93.56129181 3.88277039 92.64160156 3.88647461 C91.69492111 3.88632858 90.74824066 3.88618256 89.77287292 3.8860321 C86.6454336 3.88672847 83.51805392 3.89450802 80.390625 3.90234375 C78.22157829 3.90420891 76.05253117 3.90563235 73.88348389 3.90663147 C68.17558631 3.91044894 62.46771418 3.92027269 56.75982666 3.93133545 C50.93494003 3.9415661 45.11004928 3.94613264 39.28515625 3.95117188 C27.85675965 3.96189562 16.42838194 3.97896283 5 4 C5 4.33 5 4.66 5 5 C-2.50769231 4.38461538 -2.50769231 4.38461538 -5 2.4375 C-5.33 1.963125 -5.66 1.48875 -6 1 C-4.7934375 1.0309375 -4.7934375 1.0309375 -3.5625 1.0625 C-1.06645115 1.29633621 -1.06645115 1.29633621 0 0 Z " fill="#E9F5EB" transform="translate(59,169)"/>
<path d="M0 0 C1.10150391 -0.00128906 2.20300781 -0.00257812 3.33789062 -0.00390625 C5.05588867 0.00189453 5.05588867 0.00189453 6.80859375 0.0078125 C7.95779297 0.00394531 9.10699219 0.00007813 10.29101562 -0.00390625 C11.39123047 -0.00261719 12.49144531 -0.00132813 13.625 0 C14.63119385 0.00112793 15.6373877 0.00225586 16.67407227 0.00341797 C19.24609375 0.1328125 19.24609375 0.1328125 22.24609375 1.1328125 C22.24609375 2.1228125 22.24609375 3.1128125 22.24609375 4.1328125 C21.65707275 4.15786865 21.06805176 4.1829248 20.46118164 4.20874023 C17.74350704 4.32613611 15.02606033 4.44819965 12.30859375 4.5703125 C11.38240234 4.60962891 10.45621094 4.64894531 9.50195312 4.68945312 C3.71095956 4.95360371 -1.99930128 5.43045559 -7.75390625 6.1328125 C-7.75390625 5.1428125 -7.75390625 4.1528125 -7.75390625 3.1328125 C-8.41390625 3.1328125 -9.07390625 3.1328125 -9.75390625 3.1328125 C-9.75390625 2.4728125 -9.75390625 1.8128125 -9.75390625 1.1328125 C-6.44833282 0.14197683 -3.44336728 0.00385565 0 0 Z " fill="#BAF395" transform="translate(97.75390625,31.8671875)"/>
<path d="M0 0 C0.87785156 0.2165625 0.87785156 0.2165625 1.7734375 0.4375 C13.78050088 3.03362181 27.10826681 3.34641738 39 0 C38 3 38 3 35 5 C29.94861953 6.28968122 24.93314763 6.25797881 19.75 6.3125 C18.84636719 6.34150391 17.94273438 6.37050781 17.01171875 6.40039062 C10.47754323 6.46150162 5.73581003 5.11525962 0 2 C0 1.34 0 0.68 0 0 Z " fill="#202123" transform="translate(93,177)"/>
<path d="M0 0 C0.84820312 0.144375 1.69640625 0.28875 2.5703125 0.4375 C14.57907127 2.3377871 26.10738107 3.06906295 38 0 C37 3 37 3 35.26977539 3.93603516 C29.55104766 5.79916704 24.43784262 6.46259624 18.4375 6.375 C17.63892578 6.38660156 16.84035156 6.39820313 16.01757812 6.41015625 C10.39458101 6.38265993 6.09037886 5.43925916 1 3 C0.67 2.01 0.34 1.02 0 0 Z " fill="#1F2224" transform="translate(94,182)"/>
<path d="M0 0 C0.33 0 0.66 0 1 0 C1.03738281 0.75925781 1.07476562 1.51851563 1.11328125 2.30078125 C1.17902344 3.29464844 1.24476562 4.28851563 1.3125 5.3125 C1.37050781 6.29863281 1.42851562 7.28476563 1.48828125 8.30078125 C2.06484677 11.34205432 2.79291779 11.97684131 5 14 C5.6875 17.6875 5.6875 17.6875 6 21 C5.01 20.67 4.02 20.34 3 20 C2.67 22.31 2.34 24.62 2 27 C2.99 27 3.98 27 5 27 C6.79172099 33.07806891 7.28545662 37.03241883 5 43 C-2.07041176 30.33474067 -0.33728736 13.92218444 0 0 Z " fill="#7BCA98" transform="translate(10,101)"/>
<path d="M0 0 C1.2375 0.309375 2.475 0.61875 3.75 0.9375 C9.45164503 2.21968812 15.17873504 2.62570547 21 3 C21 3.66 21 4.32 21 5 C25.95 4.67 30.9 4.34 36 4 C31.42926384 8.57073616 24.0985381 7.18392627 18.0625 7.1875 C16.43538086 7.20586914 16.43538086 7.20586914 14.77539062 7.22460938 C13.72673828 7.22654297 12.67808594 7.22847656 11.59765625 7.23046875 C10.64383057 7.23457764 9.69000488 7.23868652 8.70727539 7.24291992 C5.75578561 6.97808699 3.62473768 6.37103602 1 5 C0.1875 2.375 0.1875 2.375 0 0 Z " fill="#2B3132" transform="translate(94,191)"/>
<path d="M0 0 C0.66 0 1.32 0 2 0 C2 0.66 2 1.32 2 2 C4.31 2.33 6.62 2.66 9 3 C9.625 5.375 9.625 5.375 10 8 C9.34 8.66 8.68 9.32 8 10 C8.66 10 9.32 10 10 10 C9.34 11.98 8.68 13.96 8 16 C8.66 16 9.32 16 10 16 C9.67 18.64 9.34 21.28 9 24 C7 23 7 23 5.96484375 20.3046875 C2.54892908 8.90098756 2.54892908 8.90098756 2 3 C1.34 3 0.68 3 0 3 C0 2.01 0 1.02 0 0 Z " fill="#9BE295" transform="translate(174,62)"/>
<path d="M0 0 C4.29 0 8.58 0 13 0 C13 4.29 13 8.58 13 13 C12.67 13 12.34 13 12 13 C12 11.02 12 9.04 12 7 C8.04 7 4.08 7 0 7 C0 4.69 0 2.38 0 0 Z " fill="#DB726F" transform="translate(106,42)"/>
<path d="M0 0 C3.81349276 0.68123167 7.39054283 1.70732472 11.0625 2.9375 C12.08472656 3.27652344 13.10695312 3.61554687 14.16015625 3.96484375 C16.55547123 4.83796407 18.7556883 5.79980454 21 7 C21 7.66 21 8.32 21 9 C19.02 9.66 17.04 10.32 15 11 C15 10.34 15 9.68 15 9 C14.0925 9.33 13.185 9.66 12.25 10 C9 11 9 11 5 11 C5.33 9.02 5.66 7.04 6 5 C4.02 4.01 2.04 3.02 0 2 C0 1.34 0 0.68 0 0 Z " fill="#C4F794" transform="translate(139,13)"/>
<path d="M0 0 C0.66 0 1.32 0 2 0 C4.49436037 8.7302613 4.49436037 15.2697387 2 24 C1.67 24 1.34 24 1 24 C0.855625 22.948125 0.71125 21.89625 0.5625 20.8125 C0.07836561 17.17065634 0.07836561 17.17065634 -0.625 14.3125 C-1.02258587 11.86072047 -0.7786753 10.3360259 0 8 C-0.99 8 -1.98 8 -3 8 C-1.125 1.125 -1.125 1.125 0 0 Z " fill="#6CC895" transform="translate(209,120)"/>
<path d="M0 0 C1.1446875 0.0928125 1.1446875 0.0928125 2.3125 0.1875 C3.35699911 3.32099732 3.24673645 4.17718256 2.3125 7.1875 C-0.97446233 7.98703138 -2.39773192 8.28408936 -5.6875 7.1875 C-5.6875 7.8475 -5.6875 8.5075 -5.6875 9.1875 C-8 9.875 -8 9.875 -10.6875 10.1875 C-12.35546875 8.70703125 -12.35546875 8.70703125 -13.6875 7.1875 C-12.87345703 6.80658203 -12.87345703 6.80658203 -12.04296875 6.41796875 C-11.32753906 6.07378906 -10.61210937 5.72960937 -9.875 5.375 C-9.16730469 5.03855469 -8.45960938 4.70210937 -7.73046875 4.35546875 C-5.6327995 3.27923601 -5.6327995 3.27923601 -4.09375 1.5625 C-2.6875 0.1875 -2.6875 0.1875 0 0 Z " fill="#64C597" transform="translate(197.6875,133.8125)"/>
<path d="M0 0 C5.40221906 4.46068945 6.58207766 12.91011518 7.4765625 19.5234375 C7.7115833 22.35040201 7.89785113 25.16536874 8 28 C7.71253906 27.40445313 7.42507812 26.80890625 7.12890625 26.1953125 C5.94124872 23.78841508 5.94124872 23.78841508 3.9375 20.875 C1.41857482 16.53267376 0.95658384 11.96680873 1 7 C1.33 6.01 1.66 5.02 2 4 C0.35 4 -1.3 4 -3 4 C-3 3.34 -3 2.68 -3 2 C-2.01 1.34 -1.02 0.68 0 0 Z " fill="#94DB9B" transform="translate(207,76)"/>
<path d="M0 0 C4.69016504 2.21480016 7.11888057 5.24230714 9 10 C9.44368342 13.00639612 9.3850175 15.90739581 9.25 18.9375 C9.22292969 20.10635742 9.22292969 20.10635742 9.1953125 21.29882812 C9.14866383 23.19976131 9.07693829 25.10005169 9 27 C8.01 27 7.02 27 6 27 C5.97421875 25.77023438 5.9484375 24.54046875 5.921875 23.2734375 C5.86556994 21.64059068 5.80822315 20.00777955 5.75 18.375 C5.73582031 17.56675781 5.72164063 16.75851563 5.70703125 15.92578125 C5.4845822 10.45353473 4.44238133 7.44307357 1 3 C0.67 2.01 0.34 1.02 0 0 Z " fill="#96AFAD" transform="translate(77,59)"/>
<path d="M0 0 C1.32 0 2.64 0 4 0 C4.67408308 1.26691507 5.33900497 2.53870749 6 3.8125 C6.556875 4.87404297 6.556875 4.87404297 7.125 5.95703125 C8 8 8 8 8 11 C5.33333333 12.33333333 2.66666667 13.66666667 0 15 C0.57584432 12.61435923 1.22227595 10.33317216 2 8 C1.34 8 0.68 8 0 8 C0 5.36 0 2.72 0 0 Z " fill="#9FE497" transform="translate(200,64)"/>
<path d="M0 0 C0 3 0 3 -1.45703125 4.578125 C-3.88058739 8.38218779 -3.57315207 12.32636847 -3.6875 16.75 C-3.72166016 17.63816406 -3.75582031 18.52632812 -3.79101562 19.44140625 C-3.87328714 21.62747803 -3.94250172 23.81315951 -4 26 C-4.99 26 -5.98 26 -7 26 C-7.75195822 8.78851175 -7.75195822 8.78851175 -3 2 C-2.01 1.34 -1.02 0.68 0 0 Z " fill="#92AAAA" transform="translate(146,60)"/>
<path d="M0 0 C-3.625 3 -3.625 3 -7 3 C-7.0825 3.5775 -7.165 4.155 -7.25 4.75 C-8.21797787 7.6539336 -9.68694284 9.03740604 -12 11 C-12.66 11 -13.32 11 -14 11 C-14.33 12.65 -14.66 14.3 -15 16 C-15.33 16 -15.66 16 -16 16 C-16.45647158 10.29410528 -15.69917584 7.39901992 -12 3 C-8.05062318 -0.20219742 -4.99834992 -0.29402058 0 0 Z " fill="#ECEC8B" transform="translate(142,116)"/>
<path d="M0 0 C6.93 0 13.86 0 21 0 C21.33 0.99 21.66 1.98 22 3 C14.41 3 6.82 3 -1 3 C-0.67 2.01 -0.34 1.02 0 0 Z " fill="#E2E283" transform="translate(128,131)"/>
<path d="M0 0 C2.31 0 4.62 0 7 0 C5.68 5.28 4.36 10.56 3 16 C-0.3500512 10.9749232 -0.11829164 5.9145821 0 0 Z " fill="#96E095" transform="translate(40,72)"/>
<path d="M0 0 C-2.22241968 2.55578263 -3.69228495 3.38649587 -7 4 C-8.65989282 4.07911543 -10.3226287 4.10778885 -11.984375 4.09765625 C-12.91894531 4.09443359 -13.85351562 4.09121094 -14.81640625 4.08789062 C-15.78449219 4.07951172 -16.75257812 4.07113281 -17.75 4.0625 C-18.73355469 4.05798828 -19.71710938 4.05347656 -20.73046875 4.04882812 C-23.15370791 4.03706483 -25.57682273 4.02062684 -28 4 C-27.67 3.34 -27.34 2.68 -27 2 C-24.39086507 1.71108894 -21.86731658 1.53196301 -19.25 1.4375 C-12.76651002 1.1634676 -6.47059459 -0.15047894 0 0 Z " fill="#1D2021" transform="translate(131,174)"/>
<path d="M0 0 C3.00160543 0.31989899 6.00086463 0.65778487 9 1 C9.69996094 1.0721875 10.39992187 1.144375 11.12109375 1.21875 C12.75706376 1.40921636 14.38118972 1.69647307 16 2 C16.33 2.66 16.66 3.32 17 4 C14.69 4 12.38 4 10 4 C9.67 4.66 9.34 5.32 9 6 C6.03 6 3.06 6 0 6 C0 4.02 0 2.04 0 0 Z " fill="#CAE5CA" transform="translate(119,49)"/>
<path d="M0 0 C0 1.98 0 3.96 0 6 C-3.3 6 -6.6 6 -10 6 C-10 4.35 -10 2.7 -10 1 C-6.52674819 -0.1577506 -3.63932552 -0.06866652 0 0 Z " fill="#C5E6C7" transform="translate(106,49)"/>
<path d="M0 0 C0.33 0.66 0.66 1.32 1 2 C1.99 2 2.98 2 4 2 C4 4.64 4 7.28 4 10 C1.36 10 -1.28 10 -4 10 C-3.29445932 6.33118845 -1.72264494 3.29549466 0 0 Z " fill="#98E193" transform="translate(20,70)"/>
<path d="M0 0 C-0.33 1.98 -0.66 3.96 -1 6 C-1.721875 5.814375 -2.44375 5.62875 -3.1875 5.4375 C-6.15710817 4.97556095 -8.08924744 5.40292255 -11 6 C-13.3125 5.5625 -13.3125 5.5625 -15 5 C-14.34 5 -13.68 5 -13 5 C-13 4.34 -13 3.68 -13 3 C-4.57142857 -0.42857143 -4.57142857 -0.42857143 0 0 Z " fill="#C3F790" transform="translate(77,18)"/>
<path d="M0 0 C0.33 1.32 0.66 2.64 1 4 C-5.73281213 5.700773 -11.13252891 6.10765663 -18 5 C-15.05468371 3.03645581 -13.51565155 2.55070294 -10.125 1.9375 C-9.28195313 1.78152344 -8.43890625 1.62554687 -7.5703125 1.46484375 C-6.72210938 1.31144531 -5.87390625 1.15804687 -5 1 C-3.33271451 0.66977587 -1.66585806 0.33735118 0 0 Z " fill="#202122" transform="translate(130,191)"/>
<path d="M0 0 C9.9 0 19.8 0 30 0 C30 0.66 30 1.32 30 2 C10.03189066 2.18451025 10.03189066 2.18451025 1 1 C1 1.66 1 2.32 1 3 C1.66 3 2.32 3 3 3 C3 3.99 3 4.98 3 6 C2.34 6 1.68 6 1 6 C0.67 6.66 0.34 7.32 0 8 C0 5.36 0 2.72 0 0 Z " fill="#48B99B" transform="translate(133,174)"/>
<path d="M0 0 C2.66345204 0.5073242 4.09163295 0.34445568 6.625 -0.5 C6.99423077 4.05384615 6.99423077 4.05384615 5.125 6.3125 C4.63 6.704375 4.135 7.09625 3.625 7.5 C2.965 6.84 2.305 6.18 1.625 5.5 C1.625 6.16 1.625 6.82 1.625 7.5 C-1.375 6.5 -1.375 6.5 -3.0625 3.4375 C-3.495625 2.468125 -3.92875 1.49875 -4.375 0.5 C-2.375 -0.5 -2.375 -0.5 0 0 Z " fill="#F3F3F3" transform="translate(73.375,195.5)"/>
<path d="M0 0 C0.33 0 0.66 0 1 0 C1.125 6.75 1.125 6.75 0 9 C-7.59 9 -15.18 9 -23 9 C-23 8.67 -23 8.34 -23 8 C-18.5621439 6.88834768 -14.23043614 6.88472237 -9.6875 6.9375 C-8.94693359 6.94201172 -8.20636719 6.94652344 -7.44335938 6.95117188 C-5.62887101 6.96287825 -3.81442466 6.98081102 -2 7 C-1.34 4.69 -0.68 2.38 0 0 Z " fill="#D3D37D" transform="translate(98,125)"/>
<path d="M0 0 C5.02265357 1.18180084 8.0949151 2.44992282 12 6 C11.01 6.33 10.02 6.66 9 7 C9 6.34 9 5.68 9 5 C4.46859347 4.06619039 4.46859347 4.06619039 0 5 C-0.33 5.66 -0.66 6.32 -1 7 C-5.75 6.25 -5.75 6.25 -8 4 C-6.576875 3.566875 -6.576875 3.566875 -5.125 3.125 C-1.94788422 2.23174891 -1.94788422 2.23174891 0 0 Z " fill="#E7F0ED" transform="translate(146,192)"/>
<path d="M0 0 C0.66 0 1.32 0 2 0 C2 4.29 2 8.58 2 13 C1.67 13 1.34 13 1 13 C1 11.02 1 9.04 1 7 C-2.63 7 -6.26 7 -10 7 C-8 5 -8 5 -5.375 4.875 C-4.59125 4.91625 -3.8075 4.9575 -3 5 C-3 4.01 -3 3.02 -3 2 C-2.01 2 -1.02 2 0 2 C0 1.34 0 0.68 0 0 Z " fill="#DF6B6B" transform="translate(117,42)"/>
<path d="M0 0 C0 4.62 0 9.24 0 14 C-1.32 14 -2.64 14 -4 14 C-4 9.71 -4 5.42 -4 1 C-1 0 -1 0 0 0 Z " fill="#C43435" transform="translate(110,67)"/>
<path d="M0 0 C2 1 2 1 3 2 C3 1.34 3 0.68 3 0 C4.98 0 6.96 0 9 0 C8.01 1.485 8.01 1.485 7 3 C6.83300768 6.12521833 6.83300768 6.12521833 7 9 C6.34 9 5.68 9 5 9 C5 8.34 5 7.68 5 7 C4.401875 6.731875 3.80375 6.46375 3.1875 6.1875 C1.02775192 5.01506533 -0.35790256 3.80630718 -2 2 C-1.34 1.34 -0.68 0.68 0 0 Z " fill="#37AB96" transform="translate(157,193)"/>
<path d="M0 0 C0.33 0.66 0.66 1.32 1 2 C-2.50776784 3.60355101 -5.14354879 4.22036864 -9 4 C-8.67 2.35 -8.34 0.7 -8 -1 C-4.61951646 -2.20731555 -3.00565087 -1.96921954 0 0 Z " fill="#B9F38E" transform="translate(172,28)"/>
<path d="M0 0 C-3.75 3 -3.75 3 -6 3 C-5.01 4.32 -4.02 5.64 -3 7 C-6.3 7 -9.6 7 -13 7 C-11.37660195 5.29115995 -9.70680947 3.62553283 -8 2 C-7.34 2 -6.68 2 -6 2 C-6 1.34 -6 0.68 -6 0 C-3.50907189 -1.24546405 -2.58919267 -0.7767578 0 0 Z " fill="#BDF495" transform="translate(62,25)"/>
<path d="M0 0 C0.66 0 1.32 0 2 0 C3.79172099 6.07806891 4.28545662 10.03241883 2 16 C-0.14336161 12.5233662 -0.21277626 9.78770805 -0.125 5.75 C-0.10695313 4.67234375 -0.08890625 3.5946875 -0.0703125 2.484375 C-0.04710937 1.66453125 -0.02390625 0.8446875 0 0 Z " fill="#68C797" transform="translate(13,128)"/>
<path d="M0 0 C2.475 0.99 2.475 0.99 5 2 C4.875 3.875 4.875 3.875 4 6 C0.9375 7.25 0.9375 7.25 -2 8 C-2.6875 5.6875 -2.6875 5.6875 -3 3 C-1.5625 1.1875 -1.5625 1.1875 0 0 Z " fill="#88D897" transform="translate(35,96)"/>
<path d="M0 0 C0 3.3 0 6.6 0 10 C-2.31 9.34 -4.62 8.68 -7 8 C-6.01 7.34 -5.02 6.68 -4 6 C-2.98131338 5.01904252 -1.97648017 4.02297922 -1 3 C-1.7425 3.37125 -2.485 3.7425 -3.25 4.125 C-6 5 -6 5 -8.171875 4.0546875 C-8.77515625 3.70664063 -9.3784375 3.35859375 -10 3 C-8.52144705 2.49818809 -7.04213942 1.99859924 -5.5625 1.5 C-4.73878906 1.2215625 -3.91507813 0.943125 -3.06640625 0.65625 C-1 0 -1 0 0 0 Z " fill="#2F3E3F" transform="translate(132,184)"/>
<path d="M0 0 C3.86386961 0.69406547 7.51884917 1.71982147 11.25 2.9375 C12.30703125 3.27652344 13.3640625 3.61554687 14.453125 3.96484375 C17 5 17 5 18 7 C16.95199219 6.87431641 16.95199219 6.87431641 15.8828125 6.74609375 C14.97273437 6.64425781 14.06265625 6.54242187 13.125 6.4375 C12.22007812 6.33308594 11.31515625 6.22867187 10.3828125 6.12109375 C7.98346943 5.80325148 7.98346943 5.80325148 6 7 C5.67 6.01 5.34 5.02 5 4 C2.49552484 2.78130071 2.49552484 2.78130071 0 2 C0 1.34 0 0.68 0 0 Z " fill="#D1FAA8" transform="translate(139,13)"/>
<path d="M0 0 C-0.7115625 0.6496875 -0.7115625 0.6496875 -1.4375 1.3125 C-3.23686957 3.02309613 -3.23686957 3.02309613 -4 6 C-6.475 5.01 -6.475 5.01 -9 4 C-8.1875 2.0625 -8.1875 2.0625 -7 0 C-3.86650268 -1.04449911 -3.01031744 -0.93423645 0 0 Z " fill="#F8F5F8" transform="translate(153,196)"/>
<path d="M0 0 C0.33 1.98 0.66 3.96 1 6 C-6.57142857 4.14285714 -6.57142857 4.14285714 -9 1 C-6.04335481 -0.4783226 -3.25770263 -0.06032783 0 0 Z " fill="#B8EF9B" transform="translate(153,40)"/>
<path d="M0 0 C1.65 1.65 3.3 3.3 5 5 C4.34 5 3.68 5 3 5 C3.33 6.65 3.66 8.3 4 10 C1.525 9.01 1.525 9.01 -1 8 C-1.33 5.69 -1.66 3.38 -2 1 C-1.34 0.67 -0.68 0.34 0 0 Z " fill="#5A5B5B" transform="translate(64,152)"/>
<path d="M0 0 C3.63 0 7.26 0 11 0 C11 1.65 11 3.3 11 5 C10.34 5 9.68 5 9 5 C8.67 5.66 8.34 6.32 8 7 C7.54625 6.505 7.0925 6.01 6.625 5.5 C5.12364481 3.77390663 5.12364481 3.77390663 3 4 C3 3.34 3 2.68 3 2 C4.65 2 6.3 2 8 2 C8 2.66 8 3.32 8 4 C8.66 4 9.32 4 10 4 C10 3.01 10 2.02 10 1 C6.7 1 3.4 1 0 1 C0 0.67 0 0.34 0 0 Z " fill="#BC2423" transform="translate(107,49)"/>
<path d="M0 0 C0 3 0 3 -1.45703125 4.734375 C-3.60207039 7.88405272 -3.51278569 10.47617095 -3.6875 14.25 C-3.78611328 16.14492187 -3.78611328 16.14492187 -3.88671875 18.078125 C-3.92410156 19.04234375 -3.96148437 20.0065625 -4 21 C-4.33 21 -4.66 21 -5 21 C-5.25011345 18.77308629 -5.47428352 16.54324878 -5.6875 14.3125 C-5.81511719 13.07113281 -5.94273437 11.82976562 -6.07421875 10.55078125 C-5.99249308 6.64085293 -5.39266772 5.03874276 -3 2 C-2.01 1.34 -1.02 0.68 0 0 Z " fill="#9BB4AE" transform="translate(146,60)"/>
<path d="M0 0 C0.66 0 1.32 0 2 0 C2 0.99 2 1.98 2 3 C0.36368108 4.04892238 -1.30485863 5.04906703 -3 6 C-3.33 6.66 -3.66 7.32 -4 8 C-4.66 8 -5.32 8 -6 8 C-6 7.34 -6 6.68 -6 6 C-7.65 6.33 -9.3 6.66 -11 7 C-10.34 5.68 -9.68 4.36 -9 3 C-8.2575 3.2475 -7.515 3.495 -6.75 3.75 C-5.38875 3.87375 -5.38875 3.87375 -4 4 C-1.7914234 2.12491838 -1.7914234 2.12491838 0 0 Z " fill="#EBF5F6" transform="translate(67,197)"/>
<path d="M0 0 C0.33 0 0.66 0 1 0 C1.33 1.98 1.66 3.96 2 6 C2.66 6 3.32 6 4 6 C3.34 8.97 2.68 11.94 2 15 C1.34 15 0.68 15 0 15 C0 10.05 0 5.1 0 0 Z " fill="#3FA189" transform="translate(132,174)"/>
<path d="M0 0 C0.33 0 0.66 0 1 0 C1 3.96 1 7.92 1 12 C0.67 11.34 0.34 10.68 0 10 C-0.99 10 -1.98 10 -3 10 C-3.33 8.02 -3.66 6.04 -4 4 C-3.01 4.33 -2.02 4.66 -1 5 C-0.67 3.35 -0.34 1.7 0 0 Z " fill="#181817" transform="translate(125,124)"/>
<path d="M0 0 C2.64 0 5.28 0 8 0 C9.35439668 2.70879335 9.06501451 5.00933268 9 8 C7.87411986 7.04270084 6.7493285 6.08412105 5.625 5.125 C4.99851563 4.59132813 4.37203125 4.05765625 3.7265625 3.5078125 C2.44163349 2.38567993 1.20628025 1.20628025 0 0 Z " fill="#6B685F" transform="translate(142,116)"/>
<path d="M0 0 C4.29 0 8.58 0 13 0 C12.67 0.99 12.34 1.98 12 3 C7.71 3 3.42 3 -1 3 C-0.67 2.01 -0.34 1.02 0 0 Z " fill="#FAEFEA" transform="translate(107,39)"/>
<path d="M0 0 C0.33 0 0.66 0 1 0 C1 2.31 1 4.62 1 7 C0.01 7 -0.98 7 -2 7 C-2 7.66 -2 8.32 -2 9 C-3.98 8.34 -5.96 7.68 -8 7 C-7.401875 6.71125 -6.80375 6.4225 -6.1875 6.125 C-2.02297418 4.04797494 -2.02297418 4.04797494 0 0 Z " fill="#BDD7C5" transform="translate(132,191)"/>
<path d="M0 0 C3.63 0.66 7.26 1.32 11 2 C10.67 2.99 10.34 3.98 10 5 C8.51793505 4.745504 7.03931385 4.47088238 5.5625 4.1875 C4.73878906 4.03667969 3.91507812 3.88585937 3.06640625 3.73046875 C2.38449219 3.48941406 1.70257813 3.24835938 1 3 C0.67 2.01 0.34 1.02 0 0 Z " fill="#1E2021" transform="translate(94,187)"/>
<path d="M0 0 C0.99 0.33 1.98 0.66 3 1 C2.67 1.99 2.34 2.98 2 4 C1.34 3.67 0.68 3.34 0 3 C0 3.66 0 4.32 0 5 C-3.47307692 7.10865385 -3.47307692 7.10865385 -6.140625 6.55859375 C-7.06101563 6.28208984 -7.06101563 6.28208984 -8 6 C-6.7391988 4.96680187 -5.46596742 3.94875621 -4.1875 2.9375 C-3.47980469 2.36902344 -2.77210938 1.80054688 -2.04296875 1.21484375 C-1.36878906 0.81394531 -0.69460937 0.41304687 0 0 Z " fill="#75CAA1" transform="translate(195,134)"/>
<path d="M0 0 C1.9375 0.75 1.9375 0.75 4 2 C4.75 4.125 4.75 4.125 5 6 C3.824375 6.4640625 3.824375 6.4640625 2.625 6.9375 C0.07669872 7.92875038 0.07669872 7.92875038 -2 9 C-1.855625 8.443125 -1.71125 7.88625 -1.5625 7.3125 C-0.97230872 4.88615805 -0.476571 2.45093655 0 0 Z " fill="#F1F388" transform="translate(146,120)"/>
<path d="M0 0 C0.33 0 0.66 0 1 0 C1.2226746 1.43534841 1.42761906 2.87345525 1.625 4.3125 C1.74101562 5.11300781 1.85703125 5.91351563 1.9765625 6.73828125 C2 9 2 9 0 12 C-0.33 11.67 -0.66 11.34 -1 11 C-0.91015699 9.14227838 -0.75388139 7.28752015 -0.5625 5.4375 C-0.46066406 4.42558594 -0.35882813 3.41367188 -0.25390625 2.37109375 C-0.17011719 1.58863281 -0.08632812 0.80617188 0 0 Z M2 2 C2.66 2 3.32 2 4 2 C3.67 3.98 3.34 5.96 3 8 C2.67 8 2.34 8 2 8 C2 6.02 2 4.04 2 2 Z " fill="#8ED898" transform="translate(12,88)"/>
<path d="M0 0 C0.99 0.33 1.98 0.66 3 1 C3 1.66 3 2.32 3 3 C4.32 3.33 5.64 3.66 7 4 C2.5 8 2.5 8 -2 8 C-1.67 7.01 -1.34 6.02 -1 5 C-0.01 4.67 0.98 4.34 2 4 C1.34 2.68 0.68 1.36 0 0 Z " fill="#ECF1EB" transform="translate(154,47)"/>
<path d="M0 0 C0.99 0.33 1.98 0.66 3 1 C2.34 3.31 1.68 5.62 1 8 C1.66 8.33 2.32 8.66 3 9 C1.35 9 -0.3 9 -2 9 C-2.33 7.35 -2.66 5.7 -3 4 C-2.01 4 -1.02 4 0 4 C0 2.68 0 1.36 0 0 Z " fill="#49BB95" transform="translate(28,160)"/>
<path d="M0 0 C0.66 0.33 1.32 0.66 2 1 C1.6875 2.9375 1.6875 2.9375 1 5 C0.01 5.33 -0.98 5.66 -2 6 C-2.66 5.67 -3.32 5.34 -4 5 C-4 5.66 -4 6.32 -4 7 C-4.66 6.67 -5.32 6.34 -6 6 C-5.67 5.34 -5.34 4.68 -5 4 C-4.34 4 -3.68 4 -3 4 C-2.67 3.01 -2.34 2.02 -2 1 C-1.34 0.67 -0.68 0.34 0 0 Z " fill="#CFE7D2" transform="translate(67,64)"/>
<path d="M0 0 C0 1.32 0 2.64 0 4 C-2.64 4 -5.28 4 -8 4 C-8 3.01 -8 2.02 -8 1 C-5.07175348 0.02391783 -3.04386724 -0.08226668 0 0 Z " fill="#D0E5CF" transform="translate(104,49)"/>
<path d="M0 0 C0.33 0.66 0.66 1.32 1 2 C1.66 1.34 2.32 0.68 3 0 C3 1.32 3 2.64 3 4 C2.34 4 1.68 4 1 4 C1 4.99 1 5.98 1 7 C0.34 7 -0.32 7 -1 7 C-1.99 5.02 -2.98 3.04 -4 1 C-2 0 -2 0 0 0 Z " fill="#5B5C5B" transform="translate(161,92)"/>
<path d="M0 0 C1.32 0.33 2.64 0.66 4 1 C3.67 1.99 3.34 2.98 3 4 C-1.29 4 -5.58 4 -10 4 C-10 3.67 -10 3.34 -10 3 C-7.03 3 -4.06 3 -1 3 C-0.67 2.01 -0.34 1.02 0 0 Z " fill="#C5C6AC" transform="translate(129,52)"/>
<path d="M0 0 C0.66 0.99 1.32 1.98 2 3 C1.505 3.8353125 1.505 3.8353125 1 4.6875 C-0.1309601 7.30284522 -0.15662974 9.1806646 0 12 C-0.66 12 -1.32 12 -2 12 C-2.05422947 10.5629191 -2.09289723 9.12524538 -2.125 7.6875 C-2.14820312 6.88699219 -2.17140625 6.08648437 -2.1953125 5.26171875 C-2 3 -2 3 0 0 Z " fill="#EEEE8F" transform="translate(76,121)"/>
<path d="M0 0 C0.66 0.33 1.32 0.66 2 1 C2.99 1.33 3.98 1.66 5 2 C4.19185349 3.33597652 3.37836819 4.668725 2.5625 6 C2.11003906 6.7425 1.65757812 7.485 1.19140625 8.25 C0.79824219 8.8275 0.40507813 9.405 0 10 C-0.33 10 -0.66 10 -1 10 C-0.67 6.7 -0.34 3.4 0 0 Z " fill="#5C5954" transform="translate(127,115)"/>
<path d="M0 0 C-1.69179328 2.04219706 -2.63727666 2.91793306 -5.26171875 3.51171875 C-6.06222656 3.56972656 -6.86273438 3.62773438 -7.6875 3.6875 C-8.49574219 3.75324219 -9.30398437 3.81898437 -10.13671875 3.88671875 C-10.75160156 3.92410156 -11.36648437 3.96148437 -12 4 C-8.41084094 -0.78554541 -5.58334594 -0.37222306 0 0 Z " fill="#E0E287" transform="translate(90,116)"/>
<path d="M0 0 C0.28875 0.598125 0.5775 1.19625 0.875 1.8125 C2.04742026 4.19327792 2.04742026 4.19327792 4 7 C0.62537285 6.45276317 -1.08235 5.9451 -4 4 C-2.68 2.68 -1.36 1.36 0 0 Z " fill="#D3E9D5" transform="translate(76,203)"/>
<path d="M0 0 C2.97 1.98 2.97 1.98 6 4 C4.125 5.0625 4.125 5.0625 2 6 C1.34 5.67 0.68 5.34 0 5 C0 4.34 0 3.68 0 3 C-0.66 2.67 -1.32 2.34 -2 2 C-1.34 1.34 -0.68 0.68 0 0 Z " fill="#E9F7F5" transform="translate(50,194)"/>
<path d="M0 0 C0 0.66 0 1.32 0 2 C-0.639375 2.61875 -1.27875 3.2375 -1.9375 3.875 C-4.03417231 6.03520783 -4.58396674 7.08776721 -5 10 C-5.99 8.35 -6.98 6.7 -8 5 C-2.25 0 -2.25 0 0 0 Z " fill="#4DB797" transform="translate(200,163)"/>
<path d="M0 0 C0 2.62113708 -0.31292445 4.50935112 -1 7 C-1.66 7 -2.32 7 -3 7 C-3.33 8.32 -3.66 9.64 -4 11 C-4.8125 8.875 -4.8125 8.875 -5 6 C-3.55576519 3.69892439 -1.89127865 1.98353614 0 0 Z " fill="#666F67" transform="translate(64,88)"/>
<path d="M0 0 C3 1 3 1 4.125 2.9375 C4.41375 3.618125 4.7025 4.29875 5 5 C5.33 5.66 5.66 6.32 6 7 C2.08597051 5.73058503 0.20927127 4.48832306 -2 1 C-1.34 0.67 -0.68 0.34 0 0 Z " fill="#4AB59D" transform="translate(42,184)"/>
<path d="M0 0 C1.32 0 2.64 0 4 0 C4.33 2.31 4.66 4.62 5 7 C4.01 7.495 4.01 7.495 3 8 C2.01 5.36 1.02 2.72 0 0 Z " fill="#60C39C" transform="translate(16,148)"/>
<path d="M0 0 C1.32 0 2.64 0 4 0 C4 1.32 4 2.64 4 4 C3.34 4 2.68 4 2 4 C1.67 4.99 1.34 5.98 1 7 C0.67 7 0.34 7 0 7 C0 4.69 0 2.38 0 0 Z " fill="#E67377" transform="translate(106,42)"/>
<path d="M0 0 C1.32 0.33 2.64 0.66 4 1 C4 1.66 4 2.32 4 3 C4.99 3 5.98 3 7 3 C6.67 3.99 6.34 4.98 6 6 C4.68 5.67 3.36 5.34 2 5 C2 3.68 2 2.36 2 1 C1.34 0.67 0.68 0.34 0 0 Z " fill="#30AA93" transform="translate(52,192)"/>
<path d="M0 0 C1.32 1.32 2.64 2.64 4 4 C3.67 4.99 3.34 5.98 3 7 C1.68 6.01 0.36 5.02 -1 4 C-0.67 2.68 -0.34 1.36 0 0 Z " fill="#4DB99A" transform="translate(36,177)"/>
<path d="M0 0 C2.91517292 1.07401108 4.77810176 1.77810176 7 4 C4.625 4.625 4.625 4.625 2 5 C1.34 4.34 0.68 3.68 0 3 C0 2.01 0 1.02 0 0 Z " fill="#4EB99A" transform="translate(49,169)"/>
<path d="M0 0 C1.98 0.495 1.98 0.495 4 1 C4 2.32 4 3.64 4 5 C2.68 5.33 1.36 5.66 0 6 C0.33 5.01 0.66 4.02 1 3 C0.34 2.67 -0.32 2.34 -1 2 C-0.67 1.34 -0.34 0.68 0 0 Z " fill="#666766" transform="translate(67,157)"/>
<path d="M0 0 C2.97 0 5.94 0 9 0 C9 0.99 9 1.98 9 3 C2.25 2.25 2.25 2.25 0 0 Z " fill="#B3F58B" transform="translate(123,33)"/>
<path d="M0 0 C-1.06546953 2.13093906 -2.29159719 3.36587557 -4 5 C-4 4.34 -4 3.68 -4 3 C-5.65 3.33 -7.3 3.66 -9 4 C-5.86025155 0.71753571 -4.76763047 0 0 0 Z " fill="#D0E7D2" transform="translate(92,195)"/>
<path d="M0 0 C3 1 3 1 4.1875 3.0625 C4.455625 3.701875 4.72375 4.34125 5 5 C3.35 5.66 1.7 6.32 0 7 C0 4.69 0 2.38 0 0 Z " fill="#EEF7F6" transform="translate(25,169)"/>
<path d="M0 0 C0.33 1.32 0.66 2.64 1 4 C-1.31 4.66 -3.62 5.32 -6 6 C-3.84615385 0 -3.84615385 0 0 0 Z " fill="#E7F6EE" transform="translate(188,136)"/>
<path d="M0 0 C0.99 0.33 1.98 0.66 3 1 C2.67 1.66 2.34 2.32 2 3 C1.34 3 0.68 3 0 3 C-0.33 4.65 -0.66 6.3 -1 8 C-1.33 8 -1.66 8 -2 8 C-2 5.69 -2 3.38 -2 1 C-1.34 0.67 -0.68 0.34 0 0 Z " fill="#E3E37F" transform="translate(128,124)"/>
<path d="M0 0 C3.875 1.75 3.875 1.75 5 4 C3.35 4.66 1.7 5.32 0 6 C-0.33 5.01 -0.66 4.02 -1 3 C-0.34 3 0.32 3 1 3 C0.67 2.01 0.34 1.02 0 0 Z " fill="#C4F89D" transform="translate(168,26)"/>
<path d="M0 0 C-2.93828597 2.50298434 -5.17902761 3.46930939 -9 4 C-8.67 3.34 -8.34 2.68 -8 2 C-7.34 2 -6.68 2 -6 2 C-6 1.34 -6 0.68 -6 0 C-3.50907189 -1.24546405 -2.58919267 -0.7767578 0 0 Z " fill="#CDF7AC" transform="translate(62,25)"/>
<path d="M0 0 C2.475 0.99 2.475 0.99 5 2 C4.67 2.66 4.34 3.32 4 4 C1.03 3.505 1.03 3.505 -2 3 C-1.34 2.01 -0.68 1.02 0 0 Z " fill="#32AC93" transform="translate(63,194)"/>
<path d="M0 0 C1.0625 1.8125 1.0625 1.8125 2 4 C1.67 4.99 1.34 5.98 1 7 C0.01 7.33 -0.98 7.66 -2 8 C-1.125 1.125 -1.125 1.125 0 0 Z " fill="#F0F7F5" transform="translate(20,158)"/>
<path d="M0 0 C0.66 0 1.32 0 2 0 C1.67 1.65 1.34 3.3 1 5 C1.66 5 2.32 5 3 5 C2.34 6.65 1.68 8.3 1 10 C0.67 10 0.34 10 0 10 C0 6.7 0 3.4 0 0 Z " fill="#5B5854" transform="translate(74,114)"/>
<path d="M0 0 C0.66 0.33 1.32 0.66 2 1 C2 2.65 2 4.3 2 6 C0.68 6 -0.64 6 -2 6 C-1.49396008 3.83125748 -1.00016187 2.00032373 0 0 Z " fill="#90DF8C" transform="translate(18,74)"/>
<path d="M0 0 C0.33 0.99 0.66 1.98 1 3 C1.66 3 2.32 3 3 3 C1.74458443 5.51083114 0.49936512 5.87125446 -2 7 C-2.125 4.625 -2.125 4.625 -2 2 C-1.34 1.34 -0.68 0.68 0 0 Z " fill="#BBD4C0" transform="translate(149,57)"/>
<path d="M0 0 C2.79872437 2.52788007 4.45773019 4.20411134 5 8 C3.68 7.67 2.36 7.34 1 7 C0.67 4.69 0.34 2.38 0 0 Z " fill="#B2E8A2" transform="translate(196,53)"/>
<path d="M0 0 C0.99 0.33 1.98 0.66 3 1 C3.33 1.99 3.66 2.98 4 4 C3.67 4.66 3.34 5.32 3 6 C2.01 6 1.02 6 0 6 C0 4.02 0 2.04 0 0 Z " fill="#BFF397" transform="translate(176,32)"/>
<path d="M0 0 C0.33 0.66 0.66 1.32 1 2 C-0.65 2.66 -2.3 3.32 -4 4 C-4 3.34 -4 2.68 -4 2 C-4.99 1.67 -5.98 1.34 -7 1 C-4.53721199 -0.231394 -2.7204945 -0.07159196 0 0 Z " fill="#DEF0EC" transform="translate(79,193)"/>
<path d="M0 0 C1.32 0.33 2.64 0.66 4 1 C2.25 4.875 2.25 4.875 0 6 C0 4.02 0 2.04 0 0 Z " fill="#4DB49C" transform="translate(184,180)"/>
<path d="M0 0 C2.97 0.495 2.97 0.495 6 1 C5.67 1.99 5.34 2.98 5 4 C3.35 4 1.7 4 0 4 C0 2.68 0 1.36 0 0 Z " fill="#49B694" transform="translate(41,164)"/>
<path d="M0 0 C0.33 0.99 0.66 1.98 1 3 C1.99 3 2.98 3 4 3 C2.35 4.32 0.7 5.64 -1 7 C-1.625 5.1875 -1.625 5.1875 -2 3 C-1.34 2.01 -0.68 1.02 0 0 Z " fill="#ADE99E" transform="translate(28,53)"/>
<path d="M0 0 C0.66 0 1.32 0 2 0 C2.59732819 2.76264289 3 5.16032769 3 8 C1.35 6.02 -0.3 4.04 -2 2 C-1.34 2 -0.68 2 0 2 C0 1.34 0 0.68 0 0 Z " fill="#B8EBA5" transform="translate(162,48)"/>
<path d="M0 0 C0 0.66 0 1.32 0 2 C0.66 2.33 1.32 2.66 2 3 C0.35 4.32 -1.3 5.64 -3 7 C-2.79375 6.38125 -2.5875 5.7625 -2.375 5.125 C-2.25125 4.42375 -2.1275 3.7225 -2 3 C-2.66 2.34 -3.32 1.68 -4 1 C-2 0 -2 0 0 0 Z " fill="#EEF7EB" transform="translate(76,44)"/>
</svg>
